<svg width="21" height="21" viewBox="0 0 21 21" fill="none" xmlns="http://www.w3.org/2000/svg">
<g id="add_circle">
<mask id="mask0_68_1352" style="mask-type:alpha" maskUnits="userSpaceOnUse" x="0" y="0" width="21" height="21">
<rect id="Bounding box" x="0.491699" y="0.910645" width="20" height="20" fill="#D9D9D9"/>
</mask>
<g mask="url(#mask0_68_1352)">
<path id="add_circle_2" d="M9.86686 14.8696H11.1168V11.5363H14.4502V10.2863H11.1168V6.95296H9.86686V10.2863H6.53353V11.5363H9.86686V14.8696ZM10.4932 18.8279C9.39829 18.8279 8.3691 18.6201 7.40565 18.2046C6.4422 17.789 5.60413 17.2251 4.89145 16.5127C4.17875 15.8003 3.61454 14.9626 3.1988 13.9996C2.78306 13.0366 2.5752 12.0076 2.5752 10.9127C2.5752 9.81773 2.78297 8.78853 3.19853 7.82509C3.61408 6.86163 4.17804 6.02356 4.8904 5.31088C5.60278 4.59819 6.44048 4.03397 7.40351 3.61823C8.36652 3.2025 9.3955 2.99463 10.4904 2.99463C11.5854 2.99463 12.6146 3.20241 13.578 3.61796C14.5415 4.03352 15.3796 4.59748 16.0922 5.30984C16.8049 6.02221 17.3691 6.85991 17.7849 7.82294C18.2006 8.78596 18.4085 9.81494 18.4085 10.9099C18.4085 12.0048 18.2007 13.034 17.7852 13.9975C17.3696 14.9609 16.8056 15.799 16.0933 16.5117C15.3809 17.2244 14.5432 17.7886 13.5802 18.2043C12.6172 18.6201 11.5882 18.8279 10.4932 18.8279ZM10.4918 17.5779C12.353 17.5779 13.9293 16.9321 15.221 15.6404C16.5127 14.3488 17.1585 12.7724 17.1585 10.9113C17.1585 9.05016 16.5127 7.47378 15.221 6.18211C13.9293 4.89044 12.353 4.24461 10.4918 4.24461C8.63073 4.24461 7.05434 4.89044 5.76267 6.18211C4.47101 7.47378 3.82517 9.05016 3.82517 10.9113C3.82517 12.7724 4.47101 14.3488 5.76267 15.6404C7.05434 16.9321 8.63073 17.5779 10.4918 17.5779Z" fill="#576487"/>
</g>
</g>
</svg>
