<svg width="21" height="21" viewBox="0 0 21 21" fill="none" xmlns="http://www.w3.org/2000/svg">
<g id="analytics">
<mask id="mask0_64_315" style="mask-type:alpha" maskUnits="userSpaceOnUse" x="0" y="0" width="21" height="21">
<rect id="Bounding box" x="0.525146" y="0.388184" width="20" height="20" fill="#D9D9D9"/>
</mask>
<g mask="url(#mask0_64_315)">
<path id="analytics_2" d="M6.35848 14.5548H8.02515V10.3882H6.35848V14.5548ZM13.0251 14.5548H14.6918V6.22152H13.0251V14.5548ZM9.69181 14.5548H11.3585V12.0548H9.69181V14.5548ZM9.69181 10.3882H11.3585V8.72152H9.69181V10.3882ZM4.69181 17.8882C4.23348 17.8882 3.84112 17.725 3.51473 17.3986C3.18834 17.0722 3.02515 16.6798 3.02515 16.2215V4.55485C3.02515 4.09652 3.18834 3.70416 3.51473 3.37777C3.84112 3.05138 4.23348 2.88818 4.69181 2.88818H16.3585C16.8168 2.88818 17.2092 3.05138 17.5356 3.37777C17.862 3.70416 18.0251 4.09652 18.0251 4.55485V16.2215C18.0251 16.6798 17.862 17.0722 17.5356 17.3986C17.2092 17.725 16.8168 17.8882 16.3585 17.8882H4.69181ZM4.69181 16.2215H16.3585V4.55485H4.69181V16.2215Z" fill="#94A2C9"/>
</g>
</g>
</svg>
