<svg width="21" height="21" viewBox="0 0 21 21" fill="none" xmlns="http://www.w3.org/2000/svg">
<g id="block">
<mask id="mask0_64_321" style="mask-type:alpha" maskUnits="userSpaceOnUse" x="0" y="0" width="21" height="21">
<rect id="Bounding box" x="0.26001" y="0.388184" width="20" height="20" fill="#D9D9D9"/>
</mask>
<g mask="url(#mask0_64_321)">
<path id="block_2" d="M10.26 18.7215C9.10719 18.7215 8.02386 18.5027 7.00997 18.0652C5.99608 17.6277 5.11414 17.034 4.36414 16.284C3.61414 15.534 3.02039 14.652 2.58289 13.6381C2.14539 12.6243 1.92664 11.5409 1.92664 10.3881C1.92664 9.23536 2.14539 8.15203 2.58289 7.13814C3.02039 6.12425 3.61414 5.24231 4.36414 4.49231C5.11414 3.74231 5.99608 3.14856 7.00997 2.71106C8.02386 2.27356 9.10719 2.05481 10.26 2.05481C11.4127 2.05481 12.4961 2.27356 13.51 2.71106C14.5239 3.14856 15.4058 3.74231 16.1558 4.49231C16.9058 5.24231 17.4996 6.12425 17.9371 7.13814C18.3746 8.15203 18.5933 9.23536 18.5933 10.3881C18.5933 11.5409 18.3746 12.6243 17.9371 13.6381C17.4996 14.652 16.9058 15.534 16.1558 16.284C15.4058 17.034 14.5239 17.6277 13.51 18.0652C12.4961 18.5027 11.4127 18.7215 10.26 18.7215ZM10.26 17.0548C11.01 17.0548 11.7322 16.9333 12.4266 16.6902C13.1211 16.4472 13.76 16.0965 14.3433 15.6381L5.00997 6.30481C4.55164 6.88814 4.20094 7.52703 3.95789 8.22148C3.71483 8.91592 3.5933 9.63814 3.5933 10.3881C3.5933 12.2493 4.23914 13.8256 5.5308 15.1173C6.82247 16.409 8.39886 17.0548 10.26 17.0548ZM15.51 14.4715C15.9683 13.8881 16.319 13.2493 16.5621 12.5548C16.8051 11.8604 16.9266 11.1381 16.9266 10.3881C16.9266 8.52703 16.2808 6.95064 14.9891 5.65898C13.6975 4.36731 12.1211 3.72148 10.26 3.72148C9.50997 3.72148 8.78775 3.843 8.0933 4.08606C7.39886 4.32912 6.75997 4.67981 6.17664 5.13814L15.51 14.4715Z" fill="#94A2C9"/>
</g>
</g>
</svg>
