<svg width="21" height="21" viewBox="0 0 21 21" fill="none" xmlns="http://www.w3.org/2000/svg">
<g id="charger">
<mask id="mask0_64_324" style="mask-type:alpha" maskUnits="userSpaceOnUse" x="0" y="0" width="21" height="21">
<rect id="Bounding box" x="0.26001" y="0.483398" width="20" height="20" fill="#D9D9D9"/>
</mask>
<g mask="url(#mask0_64_324)">
<path id="charger_2" d="M9.67664 17.15L13.8433 9.02502H10.9266V3.81669L6.75997 11.9417H9.67664V17.15ZM10.26 18.8167C9.10719 18.8167 8.02386 18.5979 7.00997 18.1604C5.99608 17.7229 5.11414 17.1292 4.36414 16.3792C3.61414 15.6292 3.02039 14.7472 2.58289 13.7334C2.14539 12.7195 1.92664 11.6361 1.92664 10.4834C1.92664 9.33058 2.14539 8.24725 2.58289 7.23336C3.02039 6.21947 3.61414 5.33752 4.36414 4.58752C5.11414 3.83752 5.99608 3.24377 7.00997 2.80627C8.02386 2.36877 9.10719 2.15002 10.26 2.15002C11.4127 2.15002 12.4961 2.36877 13.51 2.80627C14.5239 3.24377 15.4058 3.83752 16.1558 4.58752C16.9058 5.33752 17.4996 6.21947 17.9371 7.23336C18.3746 8.24725 18.5933 9.33058 18.5933 10.4834C18.5933 11.6361 18.3746 12.7195 17.9371 13.7334C17.4996 14.7472 16.9058 15.6292 16.1558 16.3792C15.4058 17.1292 14.5239 17.7229 13.51 18.1604C12.4961 18.5979 11.4127 18.8167 10.26 18.8167ZM10.26 17.15C12.1072 17.15 13.6801 16.5007 14.9787 15.2021C16.2773 13.9035 16.9266 12.3306 16.9266 10.4834C16.9266 8.63614 16.2773 7.06322 14.9787 5.76461C13.6801 4.466 12.1072 3.81669 10.26 3.81669C8.41275 3.81669 6.83983 4.466 5.54122 5.76461C4.24261 7.06322 3.5933 8.63614 3.5933 10.4834C3.5933 12.3306 4.24261 13.9035 5.54122 15.2021C6.83983 16.5007 8.41275 17.15 10.26 17.15Z" fill="#94A2C9"/>
</g>
</g>
</svg>
