<svg width="21" height="21" viewBox="0 0 21 21" fill="none" xmlns="http://www.w3.org/2000/svg">
<g id="do_not_disturb_on">
<mask id="mask0_68_1373" style="mask-type:alpha" maskUnits="userSpaceOnUse" x="0" y="0" width="21" height="21">
<rect id="Bounding box" x="0.491699" y="0.338379" width="20" height="20" fill="#D9D9D9"/>
</mask>
<g mask="url(#mask0_68_1373)">
<path id="do_not_disturb_on_2" d="M6.32487 11.1711H14.6582V9.50439H6.32487V11.1711ZM10.4915 18.6711C9.33876 18.6711 8.25542 18.4523 7.24154 18.0148C6.22765 17.5773 5.3457 16.9836 4.5957 16.2336C3.8457 15.4836 3.25195 14.6016 2.81445 13.5877C2.37695 12.5738 2.1582 11.4905 2.1582 10.3377C2.1582 9.18495 2.37695 8.10162 2.81445 7.08773C3.25195 6.07384 3.8457 5.19189 4.5957 4.44189C5.3457 3.69189 6.22765 3.09814 7.24154 2.66064C8.25542 2.22314 9.33876 2.00439 10.4915 2.00439C11.6443 2.00439 12.7276 2.22314 13.7415 2.66064C14.7554 3.09814 15.6374 3.69189 16.3874 4.44189C17.1374 5.19189 17.7311 6.07384 18.1686 7.08773C18.6061 8.10162 18.8249 9.18495 18.8249 10.3377C18.8249 11.4905 18.6061 12.5738 18.1686 13.5877C17.7311 14.6016 17.1374 15.4836 16.3874 16.2336C15.6374 16.9836 14.7554 17.5773 13.7415 18.0148C12.7276 18.4523 11.6443 18.6711 10.4915 18.6711ZM10.4915 17.0044C12.3526 17.0044 13.929 16.3586 15.2207 15.0669C16.5124 13.7752 17.1582 12.1988 17.1582 10.3377C17.1582 8.47662 16.5124 6.90023 15.2207 5.60856C13.929 4.31689 12.3526 3.67106 10.4915 3.67106C8.63042 3.67106 7.05404 4.31689 5.76237 5.60856C4.4707 6.90023 3.82487 8.47662 3.82487 10.3377C3.82487 12.1988 4.4707 13.7752 5.76237 15.0669C7.05404 16.3586 8.63042 17.0044 10.4915 17.0044Z" fill="#94A2C9"/>
</g>
</g>
</svg>
