<svg width="21" height="21" viewBox="0 0 21 21" fill="none" xmlns="http://www.w3.org/2000/svg">
<g id="group_add">
<mask id="mask0_64_346" style="mask-type:alpha" maskUnits="userSpaceOnUse" x="0" y="0" width="21" height="21">
<rect id="Bounding box" x="0.386108" y="0.433105" width="20" height="20" fill="#D9D9D9"/>
</mask>
<g mask="url(#mask0_64_346)">
<path id="group_add_2" d="M10.8028 10.3915C11.2056 9.94704 11.5146 9.44009 11.7299 8.87065C11.9451 8.3012 12.0528 7.71092 12.0528 7.09981C12.0528 6.4887 11.9451 5.89842 11.7299 5.32898C11.5146 4.75954 11.2056 4.25259 10.8028 3.80815C11.6361 3.91926 12.3306 4.28731 12.8861 4.91231C13.4417 5.53731 13.7194 6.26648 13.7194 7.09981C13.7194 7.93315 13.4417 8.66231 12.8861 9.28731C12.3306 9.91231 11.6361 10.2804 10.8028 10.3915ZM15.3861 17.0998V14.5998C15.3861 14.0998 15.275 13.6241 15.0528 13.1727C14.8306 12.7213 14.5389 12.322 14.1778 11.9748C14.8861 12.2248 15.5424 12.5477 16.1465 12.9436C16.7507 13.3394 17.0528 13.8915 17.0528 14.5998V17.0998H15.3861ZM17.0528 11.2665V9.59981H15.3861V7.93315H17.0528V6.26648H18.7194V7.93315H20.3861V9.59981H18.7194V11.2665H17.0528ZM7.05277 10.4331C6.13611 10.4331 5.35139 10.1068 4.69861 9.45398C4.04583 8.8012 3.71944 8.01648 3.71944 7.09981C3.71944 6.18315 4.04583 5.39842 4.69861 4.74565C5.35139 4.09287 6.13611 3.76648 7.05277 3.76648C7.96944 3.76648 8.75416 4.09287 9.40694 4.74565C10.0597 5.39842 10.3861 6.18315 10.3861 7.09981C10.3861 8.01648 10.0597 8.8012 9.40694 9.45398C8.75416 10.1068 7.96944 10.4331 7.05277 10.4331ZM0.386108 17.0998V14.7665C0.386108 14.2943 0.507636 13.8602 0.750692 13.4644C0.993747 13.0686 1.31666 12.7665 1.71944 12.5581C2.58055 12.1276 3.45555 11.8047 4.34444 11.5894C5.23333 11.3741 6.13611 11.2665 7.05277 11.2665C7.96944 11.2665 8.87222 11.3741 9.76111 11.5894C10.65 11.8047 11.525 12.1276 12.3861 12.5581C12.7889 12.7665 13.1118 13.0686 13.3549 13.4644C13.5979 13.8602 13.7194 14.2943 13.7194 14.7665V17.0998H0.386108ZM7.05277 8.76648C7.51111 8.76648 7.90347 8.60328 8.22986 8.2769C8.55625 7.95051 8.71944 7.55815 8.71944 7.09981C8.71944 6.64148 8.55625 6.24912 8.22986 5.92273C7.90347 5.59634 7.51111 5.43315 7.05277 5.43315C6.59444 5.43315 6.20208 5.59634 5.87569 5.92273C5.5493 6.24912 5.38611 6.64148 5.38611 7.09981C5.38611 7.55815 5.5493 7.95051 5.87569 8.2769C6.20208 8.60328 6.59444 8.76648 7.05277 8.76648ZM2.05278 15.4331H12.0528V14.7665C12.0528 14.6137 12.0146 14.4748 11.9382 14.3498C11.8618 14.2248 11.7611 14.1276 11.6361 14.0581C10.8861 13.6831 10.1292 13.4019 9.36528 13.2144C8.60139 13.0269 7.83055 12.9331 7.05277 12.9331C6.275 12.9331 5.50416 13.0269 4.74027 13.2144C3.97639 13.4019 3.21944 13.6831 2.46944 14.0581C2.34444 14.1276 2.24375 14.2248 2.16736 14.3498C2.09097 14.4748 2.05278 14.6137 2.05278 14.7665V15.4331Z" fill="#94A2C9"/>
</g>
</g>
</svg>
