<svg width="21" height="21" viewBox="0 0 21 21" fill="none" xmlns="http://www.w3.org/2000/svg">
<g id="group_remove">
<mask id="mask0_64_352" style="mask-type:alpha" maskUnits="userSpaceOnUse" x="0" y="0" width="21" height="21">
<rect id="Bounding box" x="0.823608" y="0.433105" width="20" height="20" fill="#D9D9D9"/>
</mask>
<g mask="url(#mask0_64_352)">
<path id="group_remove_2" d="M11.2403 10.3915C11.6431 9.94704 11.9521 9.44009 12.1674 8.87065C12.3826 8.3012 12.4903 7.71092 12.4903 7.09981C12.4903 6.4887 12.3826 5.89842 12.1674 5.32898C11.9521 4.75954 11.6431 4.25259 11.2403 3.80815C12.0736 3.91926 12.7681 4.28731 13.3236 4.91231C13.8792 5.53731 14.1569 6.26648 14.1569 7.09981C14.1569 7.93315 13.8792 8.66231 13.3236 9.28731C12.7681 9.91231 12.0736 10.2804 11.2403 10.3915ZM15.8236 17.0998V14.5998C15.8236 14.0998 15.7125 13.6241 15.4903 13.1727C15.2681 12.7213 14.9764 12.322 14.6153 11.9748C15.3236 12.2248 15.9799 12.5477 16.584 12.9436C17.1882 13.3394 17.4903 13.8915 17.4903 14.5998V17.0998H15.8236ZM20.8236 9.59981H15.8236V7.93315H20.8236V9.59981ZM7.49027 10.4331C6.57361 10.4331 5.78889 10.1068 5.13611 9.45398C4.48333 8.8012 4.15694 8.01648 4.15694 7.09981C4.15694 6.18315 4.48333 5.39842 5.13611 4.74565C5.78889 4.09287 6.57361 3.76648 7.49027 3.76648C8.40694 3.76648 9.19166 4.09287 9.84444 4.74565C10.4972 5.39842 10.8236 6.18315 10.8236 7.09981C10.8236 8.01648 10.4972 8.8012 9.84444 9.45398C9.19166 10.1068 8.40694 10.4331 7.49027 10.4331ZM0.823608 17.0998V14.7665C0.823608 14.2943 0.945136 13.8602 1.18819 13.4644C1.43125 13.0686 1.75416 12.7665 2.15694 12.5581C3.01805 12.1276 3.89305 11.8047 4.78194 11.5894C5.67083 11.3741 6.57361 11.2665 7.49027 11.2665C8.40694 11.2665 9.30972 11.3741 10.1986 11.5894C11.0875 11.8047 11.9625 12.1276 12.8236 12.5581C13.2264 12.7665 13.5493 13.0686 13.7924 13.4644C14.0354 13.8602 14.1569 14.2943 14.1569 14.7665V17.0998H0.823608ZM7.49027 8.76648C7.94861 8.76648 8.34097 8.60328 8.66736 8.2769C8.99375 7.95051 9.15694 7.55815 9.15694 7.09981C9.15694 6.64148 8.99375 6.24912 8.66736 5.92273C8.34097 5.59634 7.94861 5.43315 7.49027 5.43315C7.03194 5.43315 6.63958 5.59634 6.31319 5.92273C5.9868 6.24912 5.82361 6.64148 5.82361 7.09981C5.82361 7.55815 5.9868 7.95051 6.31319 8.2769C6.63958 8.60328 7.03194 8.76648 7.49027 8.76648ZM2.49028 15.4331H12.4903V14.7665C12.4903 14.6137 12.4521 14.4748 12.3757 14.3498C12.2993 14.2248 12.1986 14.1276 12.0736 14.0581C11.3236 13.6831 10.5667 13.4019 9.80278 13.2144C9.03889 13.0269 8.26805 12.9331 7.49027 12.9331C6.7125 12.9331 5.94166 13.0269 5.17777 13.2144C4.41389 13.4019 3.65694 13.6831 2.90694 14.0581C2.78194 14.1276 2.68125 14.2248 2.60486 14.3498C2.52847 14.4748 2.49028 14.6137 2.49028 14.7665V15.4331Z" fill="#94A2C9"/>
</g>
</g>
</svg>
