<svg width="33" height="33" viewBox="0 0 33 33" fill="none" xmlns="http://www.w3.org/2000/svg">
<g id="inbox_customize">
<mask id="mask0_68_1483" style="mask-type:alpha" maskUnits="userSpaceOnUse" x="0" y="0" width="33" height="33">
<rect id="Bounding box" x="0.491699" y="0.352539" width="32" height="32" fill="#D9D9D9"/>
</mask>
<g mask="url(#mask0_68_1483)">
<path id="inbox_customize_2" d="M7.56865 26.3526C6.89514 26.3526 6.32505 26.1193 5.85839 25.6526C5.39172 25.186 5.15839 24.6159 5.15839 23.9424V6.0963C5.15839 5.42279 5.39172 4.8527 5.85839 4.38604C6.32505 3.91937 6.89514 3.68604 7.56865 3.68604H25.4147C26.0882 3.68604 26.6583 3.91937 27.125 4.38604C27.5917 4.8527 27.825 5.42279 27.825 6.0963V13.3475C27.5053 13.1817 27.181 13.0463 26.8519 12.9411C26.5229 12.836 26.1806 12.7501 25.825 12.6835V6.0963C25.825 5.97664 25.7866 5.87834 25.7096 5.8014C25.6327 5.72447 25.5344 5.686 25.4147 5.686H7.56865C7.44899 5.686 7.35069 5.72447 7.27375 5.8014C7.19682 5.87834 7.15835 5.97664 7.15835 6.0963V18.0963H12.7584C12.9584 18.7048 13.2938 19.2313 13.7648 19.6758C14.2357 20.1202 14.7729 20.4313 15.3763 20.6091C15.3524 20.951 15.3421 21.292 15.3456 21.6322C15.349 21.9723 15.3797 22.3133 15.4379 22.6552C14.6464 22.5168 13.9178 22.2266 13.252 21.7847C12.5862 21.3428 12.0165 20.78 11.543 20.0962H7.15835V23.9424C7.15835 24.062 7.19682 24.1603 7.27375 24.2373C7.35069 24.3142 7.44899 24.3527 7.56865 24.3527H16.0661C16.2131 24.7219 16.3716 25.071 16.5417 25.4001C16.7118 25.7291 16.9157 26.0467 17.1533 26.3526H7.56865ZM7.56865 24.3527H7.15835H16.0661H7.56865ZM23.0378 27.1731L22.7661 25.5962C22.3883 25.4851 22.057 25.3535 21.7724 25.2013C21.4878 25.0492 21.2062 24.8415 20.9276 24.5782L19.4173 25.1013L18.3917 23.4244L19.6302 22.3732C19.5259 22.0125 19.4737 21.6424 19.4737 21.2629C19.4737 20.8834 19.5259 20.509 19.6302 20.1398L18.3917 19.0757L19.4173 17.3988L20.9276 17.9219C21.1976 17.6672 21.4814 17.4616 21.7789 17.3052C22.0763 17.1488 22.4054 17.015 22.7661 16.9039L23.0378 15.327H25.0378L25.3096 16.9039C25.6702 17.0065 25.9972 17.1381 26.2904 17.2988C26.5835 17.4595 26.8694 17.6672 27.1481 17.9219L28.6583 17.3988L29.6839 19.0757L28.4455 20.1398C28.5583 20.5176 28.6125 20.8941 28.6083 21.2693C28.604 21.6445 28.5455 22.0125 28.4327 22.3732L29.6839 23.4244L28.6583 25.1013L27.1481 24.5782C26.8694 24.8329 26.5878 25.0385 26.3032 25.1949C26.0186 25.3513 25.6874 25.4851 25.3096 25.5962L25.0378 27.1731H23.0378ZM24.0378 24.0193C24.7968 24.0193 25.4481 23.7475 25.9917 23.2039C26.5353 22.6603 26.8071 22.009 26.8071 21.2501C26.8071 20.4911 26.5353 19.8398 25.9917 19.2962C25.4481 18.7526 24.7968 18.4808 24.0378 18.4808C23.2788 18.4808 22.6276 18.7526 22.084 19.2962C21.5404 19.8398 21.2686 20.4911 21.2686 21.2501C21.2686 22.009 21.5404 22.6603 22.084 23.2039C22.6276 23.7475 23.2788 24.0193 24.0378 24.0193Z" fill="white"/>
</g>
</g>
</svg>
