<svg width="33" height="33" viewBox="0 0 33 33" fill="none" xmlns="http://www.w3.org/2000/svg">
<g id="price_change">
<mask id="mask0_68_1489" style="mask-type:alpha" maskUnits="userSpaceOnUse" x="0" y="0" width="33" height="33">
<rect id="Bounding box" x="0.508301" y="0.352539" width="32" height="32" fill="#D9D9D9"/>
</mask>
<g mask="url(#mask0_68_1489)">
<path id="price_change_2" d="M11.5083 22.6858H13.5083V21.3525H14.9955C15.3305 21.3525 15.6109 21.2397 15.8365 21.014C16.0621 20.7884 16.1749 20.5081 16.1749 20.173V16.532C16.1749 16.197 16.0621 15.9166 15.8365 15.691C15.6109 15.4654 15.3305 15.3525 14.9955 15.3525H10.8416V13.3525H16.1749V11.3525H13.5083V10.0192H11.5083V11.3525H10.0211C9.6861 11.3525 9.40575 11.4654 9.18011 11.691C8.95449 11.9166 8.84168 12.197 8.84168 12.532V16.173C8.84168 16.5081 8.95449 16.7884 9.18011 17.014C9.40575 17.2397 9.6861 17.3525 10.0211 17.3525H14.175V19.3525H8.84168V21.3525H11.5083V22.6858ZM21.8416 21.8397L24.2006 19.4807H19.4827L21.8416 21.8397ZM19.4827 13.5576H24.2006L21.8416 11.1987L19.4827 13.5576ZM6.25194 26.3525C5.57843 26.3525 5.00834 26.1191 4.54167 25.6525C4.07501 25.1858 3.84167 24.6157 3.84167 23.9422V8.76281C3.84167 8.0893 4.07501 7.51921 4.54167 7.05254C5.00834 6.58587 5.57843 6.35254 6.25194 6.35254H26.7647C27.4382 6.35254 28.0083 6.58587 28.4749 7.05254C28.9416 7.51921 29.1749 8.0893 29.1749 8.76281V23.9422C29.1749 24.6157 28.9416 25.1858 28.4749 25.6525C28.0083 26.1191 27.4382 26.3525 26.7647 26.3525H6.25194ZM6.25194 24.3525H26.7647C26.8673 24.3525 26.9613 24.3098 27.0468 24.2243C27.1322 24.1388 27.175 24.0448 27.175 23.9422V8.76281C27.175 8.66023 27.1322 8.5662 27.0468 8.48071C26.9613 8.39524 26.8673 8.35251 26.7647 8.35251H6.25194C6.14936 8.35251 6.05533 8.39524 5.96984 8.48071C5.88437 8.5662 5.84164 8.66023 5.84164 8.76281V23.9422C5.84164 24.0448 5.88437 24.1388 5.96984 24.2243C6.05533 24.3098 6.14936 24.3525 6.25194 24.3525Z" fill="#F4F1FB"/>
</g>
</g>
</svg>
