<svg width="21" height="21" viewBox="0 0 21 21" fill="none" xmlns="http://www.w3.org/2000/svg">
<g id="price_change">
<mask id="mask0_64_343" style="mask-type:alpha" maskUnits="userSpaceOnUse" x="0" y="0" width="21" height="21">
<rect id="Bounding box" x="0.386108" y="0.337402" width="20" height="20" fill="#D9D9D9"/>
</mask>
<g mask="url(#mask0_64_343)">
<path id="price_change_2" d="M7.05273 14.5041H8.7194V13.6708H9.55273C9.78885 13.6708 9.98676 13.5909 10.1465 13.4312C10.3062 13.2715 10.3861 13.0736 10.3861 12.8374V10.3374C10.3861 10.1013 10.3062 9.90342 10.1465 9.74369C9.98676 9.58397 9.78885 9.50411 9.55273 9.50411H7.05273V8.67078H10.3861V7.00411H8.7194V6.17078H7.05273V7.00411H6.2194C5.98329 7.00411 5.78537 7.08397 5.62565 7.24369C5.46593 7.40342 5.38607 7.60133 5.38607 7.83744V10.3374C5.38607 10.5736 5.46593 10.7715 5.62565 10.9312C5.78537 11.0909 5.98329 11.1708 6.2194 11.1708H8.7194V12.0041H5.38607V13.6708H7.05273V14.5041ZM13.7194 13.8791L15.3861 12.2124H12.0527L13.7194 13.8791ZM12.0527 8.67078H15.3861L13.7194 7.00411L12.0527 8.67078ZM3.7194 17.0041C3.26107 17.0041 2.86871 16.8409 2.54232 16.5145C2.21593 16.1881 2.05273 15.7958 2.05273 15.3374V5.33744C2.05273 4.87911 2.21593 4.48675 2.54232 4.16036C2.86871 3.83397 3.26107 3.67078 3.7194 3.67078H17.0527C17.5111 3.67078 17.9034 3.83397 18.2298 4.16036C18.5562 4.48675 18.7194 4.87911 18.7194 5.33744V15.3374C18.7194 15.7958 18.5562 16.1881 18.2298 16.5145C17.9034 16.8409 17.5111 17.0041 17.0527 17.0041H3.7194ZM3.7194 15.3374H17.0527V5.33744H3.7194V15.3374Z" fill="#94A2C9"/>
</g>
</g>
</svg>
