<svg width="21" height="21" viewBox="0 0 21 21" fill="none" xmlns="http://www.w3.org/2000/svg">
<g id="settings">
<mask id="mask0_64_318" style="mask-type:alpha" maskUnits="userSpaceOnUse" x="0" y="0" width="21" height="21">
<rect id="Bounding box" x="0.525146" y="0.483398" width="20" height="20" fill="#D9D9D9"/>
</mask>
<g mask="url(#mask0_64_318)">
<path id="settings_2" d="M8.23348 18.8167L7.90015 16.15C7.71959 16.0806 7.54945 15.9972 7.38973 15.9C7.23001 15.8028 7.07376 15.6986 6.92098 15.5875L4.44181 16.6292L2.15015 12.6709L4.29598 11.0459C4.28209 10.9486 4.27515 10.8549 4.27515 10.7646V10.2021C4.27515 10.1118 4.28209 10.0181 4.29598 9.92086L2.15015 8.29586L4.44181 4.33752L6.92098 5.37919C7.07376 5.26808 7.23348 5.16391 7.40015 5.06669C7.56681 4.96947 7.73348 4.88614 7.90015 4.81669L8.23348 2.15002H12.8168L13.1501 4.81669C13.3307 4.88614 13.5008 4.96947 13.6606 5.06669C13.8203 5.16391 13.9765 5.26808 14.1293 5.37919L16.6085 4.33752L18.9001 8.29586L16.7543 9.92086C16.7682 10.0181 16.7751 10.1118 16.7751 10.2021V10.7646C16.7751 10.8549 16.7613 10.9486 16.7335 11.0459L18.8793 12.6709L16.5876 16.6292L14.1293 15.5875C13.9765 15.6986 13.8168 15.8028 13.6501 15.9C13.4835 15.9972 13.3168 16.0806 13.1501 16.15L12.8168 18.8167H8.23348ZM9.69181 17.15H11.3376L11.6293 14.9417C12.0599 14.8306 12.4592 14.6674 12.8272 14.4521C13.1953 14.2368 13.5321 13.9764 13.8376 13.6709L15.9001 14.525L16.7126 13.1084L14.921 11.7542C14.9904 11.5597 15.039 11.3549 15.0668 11.1396C15.0946 10.9243 15.1085 10.7056 15.1085 10.4834C15.1085 10.2611 15.0946 10.0424 15.0668 9.82711C15.039 9.61183 14.9904 9.40697 14.921 9.21252L16.7126 7.85836L15.9001 6.44169L13.8376 7.31669C13.5321 6.99725 13.1953 6.72989 12.8272 6.51461C12.4592 6.29933 12.0599 6.13614 11.6293 6.02502L11.3585 3.81669H9.71265L9.42098 6.02502C8.99042 6.13614 8.59112 6.29933 8.22306 6.51461C7.85501 6.72989 7.5182 6.9903 7.21265 7.29586L5.15015 6.44169L4.33765 7.85836L6.12931 9.19169C6.05987 9.40002 6.01126 9.60836 5.98348 9.81669C5.9557 10.025 5.94181 10.2472 5.94181 10.4834C5.94181 10.7056 5.9557 10.9209 5.98348 11.1292C6.01126 11.3375 6.05987 11.5459 6.12931 11.7542L4.33765 13.1084L5.15015 14.525L7.21265 13.65C7.5182 13.9695 7.85501 14.2368 8.22306 14.4521C8.59112 14.6674 8.99042 14.8306 9.42098 14.9417L9.69181 17.15ZM10.5668 13.4C11.3724 13.4 12.0599 13.1153 12.6293 12.5459C13.1988 11.9764 13.4835 11.2889 13.4835 10.4834C13.4835 9.6778 13.1988 8.9903 12.6293 8.42086C12.0599 7.85141 11.3724 7.56669 10.5668 7.56669C9.74737 7.56669 9.0564 7.85141 8.4939 8.42086C7.9314 8.9903 7.65015 9.6778 7.65015 10.4834C7.65015 11.2889 7.9314 11.9764 8.4939 12.5459C9.0564 13.1153 9.74737 13.4 10.5668 13.4Z" fill="#94A2C9"/>
</g>
</g>
</svg>
