<svg width="209" height="40" viewBox="0 0 209 40" fill="none" xmlns="http://www.w3.org/2000/svg">
<path d="M26.2556 10.061H23.1833C21.8252 10.061 20.5228 10.58 19.5625 11.5038C18.6022 12.4276 18.0627 13.6805 18.0627 14.9869V17.9424H14.9904V21.8832H18.0627V29.7646H22.1592V21.8832H25.2315L26.2556 17.9424H22.1592V14.9869C22.1592 14.7256 22.2671 14.475 22.4591 14.2903C22.6512 14.1055 22.9117 14.0017 23.1833 14.0017H26.2556V10.061Z" fill="#454864"/>
<circle cx="20.623" cy="19.9128" r="19.2141" stroke="#43477C"/>
<circle cx="76.8422" cy="19.9128" r="19.2141" stroke="#43477C"/>
<path d="M84.587 13.5867C83.9128 14.0635 83.1663 14.4282 82.3762 14.6667C81.9522 14.1779 81.3886 13.8314 80.7618 13.6742C80.135 13.5169 79.4751 13.5565 78.8714 13.7875C78.2677 14.0185 77.7493 14.4298 77.3864 14.9658C77.0235 15.5018 76.8335 16.1367 76.8422 16.7845V17.4904C75.6049 17.5225 74.3788 17.2474 73.2732 16.6895C72.1676 16.1315 71.2168 15.3081 70.5055 14.2926C70.5055 14.2926 67.6892 20.6458 74.0259 23.4694C72.5759 24.4562 70.8485 24.9511 69.0974 24.8812C75.434 28.4108 83.1789 24.8812 83.1789 16.7633C83.1782 16.5666 83.1594 16.3705 83.1225 16.1774C83.8411 15.4669 84.3482 14.5698 84.587 13.5867Z" fill="#454864"/>
<circle cx="189.286" cy="19.9128" r="19.2141" stroke="#43477C"/>
<path d="M190.097 18.713C190.306 18.4289 190.515 18.1632 190.771 17.9368C191.533 17.262 192.438 17.0216 193.434 17.0637C193.989 17.0869 194.535 17.1631 195.051 17.387C196.051 17.821 196.56 18.6393 196.806 19.6555C196.991 20.4229 197.041 21.205 197.039 21.9926C197.035 23.8019 197.035 25.6115 197.041 27.4208C197.042 27.5984 197.009 27.6582 196.815 27.6556C195.89 27.6439 194.965 27.6451 194.04 27.6544C193.868 27.6561 193.819 27.6186 193.82 27.4397C193.826 25.6654 193.826 23.8911 193.816 22.1168C193.814 21.7329 193.778 21.3486 193.664 20.9752C193.409 20.1354 192.821 19.8369 192.014 19.8921C190.973 19.9632 190.437 20.5113 190.289 21.5826C190.248 21.8756 190.239 22.1694 190.238 22.4637C190.237 24.1188 190.234 25.774 190.243 27.4292C190.244 27.6199 190.192 27.6573 190.01 27.6552C189.085 27.6447 188.16 27.6464 187.235 27.6544C187.068 27.6556 187.01 27.6262 187.01 27.4426C187.017 24.1395 187.016 20.8363 187.012 17.5331C187.011 17.3584 187.058 17.3112 187.233 17.3129C188.123 17.3218 189.013 17.3205 189.904 17.3138C190.054 17.3125 190.11 17.3382 190.103 17.5066C190.087 17.9073 190.097 18.3102 190.097 18.713Z" fill="#454864"/>
<path d="M181.791 22.4998C181.791 20.8384 181.793 19.1771 181.788 17.5158C181.787 17.3668 181.812 17.3104 181.979 17.312C182.925 17.3209 183.871 17.3196 184.817 17.3129C184.969 17.3116 185.021 17.344 185.021 17.5078C185.016 20.8237 185.016 24.1392 185.02 27.4551C185.02 27.6088 184.987 27.6547 184.825 27.6534C183.879 27.6446 182.933 27.6429 181.987 27.6542C181.807 27.6563 181.787 27.5949 181.787 27.4421C181.793 25.7942 181.791 24.1472 181.791 22.4998Z" fill="#454864"/>
<path d="M185.258 14.0308C185.263 15.0628 184.445 15.8995 183.423 15.9067C182.39 15.9139 181.538 15.0788 181.531 14.0535C181.523 13.0374 182.384 12.1713 183.401 12.1704C184.419 12.1696 185.252 13.0037 185.258 14.0308Z" fill="#454864"/>
<circle cx="133.064" cy="19.9128" r="19.2141" stroke="#43477C"/>
<path d="M133.458 13.5786C134.567 13.618 136.136 13.6604 137.705 13.7361C138.296 13.7645 138.888 13.8377 139.471 13.9458C140.355 14.1102 140.925 14.6802 141.162 15.6123C141.334 16.288 141.385 16.9838 141.434 17.6788C141.519 18.8654 141.536 20.0539 141.481 21.2424C141.435 22.2416 141.398 23.244 141.165 24.2198C140.939 25.1731 140.355 25.7473 139.457 25.9161C138.915 26.0177 138.364 26.073 137.814 26.1054C135.971 26.2149 134.125 26.2704 132.278 26.2382C130.975 26.2157 129.673 26.1711 128.371 26.1022C127.756 26.0698 127.136 26.0027 126.533 25.8702C125.733 25.694 125.192 25.1385 124.982 24.2957C124.843 23.7346 124.783 23.1463 124.728 22.5659C124.624 21.449 124.597 20.327 124.627 19.2047C124.656 18.0924 124.707 16.9811 124.894 15.8832C125.044 15.0037 125.491 14.3696 126.271 14.0322C126.65 13.8683 127.06 13.8447 127.463 13.8058C129.304 13.6282 131.15 13.6231 133.458 13.5786ZM131.381 22.6324C132.856 21.725 134.309 20.8318 135.783 19.9252C134.308 19.014 132.853 18.116 131.381 17.2069C131.381 19.0239 131.381 20.8135 131.381 22.6324Z" fill="#454864"/>
</svg>
