<svg width="51" height="51" viewBox="0 0 51 51" fill="none" xmlns="http://www.w3.org/2000/svg">
<rect x="1" y="2" width="47.5515" height="47.5515" rx="3" fill="#242640" stroke="#686B95" stroke-width="2"/>
<mask id="mask0_4_7" style="mask-type:alpha" maskUnits="userSpaceOnUse" x="1" y="0" width="50" height="50">
<rect x="1" width="49.5515" height="49.5515" rx="10" fill="#D9D9D9"/>
</mask>
<g mask="url(#mask0_4_7)">
<path d="M9.06465 37.7758C7.92438 37.7758 7 36.8514 7 35.7111V35.7111C7 34.5708 7.92437 33.6465 9.06465 33.6465H39.5336C40.6738 33.6465 41.5982 34.5708 41.5982 35.7111V35.7111C41.5982 36.8514 40.6738 37.7758 39.5336 37.7758H9.06465ZM9.06465 27.4525C7.92438 27.4525 7 26.5282 7 25.3879V25.3879C7 24.2476 7.92437 23.3232 9.06465 23.3232H39.5336C40.6738 23.3232 41.5982 24.2476 41.5982 25.3879V25.3879C41.5982 26.5282 40.6738 27.4525 39.5336 27.4525H9.06465ZM9.06465 17.1293C7.92438 17.1293 7 16.2049 7 15.0646V15.0646C7 13.9244 7.92437 13 9.06465 13H39.5336C40.6738 13 41.5982 13.9244 41.5982 15.0646V15.0646C41.5982 16.2049 40.6738 17.1293 39.5336 17.1293H9.06465Z" fill="#686B95"/>
</g>
</svg>
