<svg width="1820" height="1202" viewBox="0 0 1820 1202" fill="none" xmlns="http://www.w3.org/2000/svg">
<line x1="77.5688" y1="2.18889e-08" x2="77.5688" y2="1201.02" stroke="#161727"/>
<line x1="181.569" y1="2.18889e-08" x2="181.569" y2="1201.02" stroke="#161727"/>
<line x1="285.569" y1="2.18889e-08" x2="285.569" y2="1201.02" stroke="#161727"/>
<line x1="389.569" y1="2.18889e-08" x2="389.569" y2="1201.02" stroke="#161727"/>
<line x1="493.569" y1="2.18889e-08" x2="493.569" y2="1201.02" stroke="#161727"/>
<line x1="597.569" y1="2.18889e-08" x2="597.569" y2="1201.02" stroke="#161727"/>
<line x1="701.569" y1="2.18889e-08" x2="701.569" y2="1201.02" stroke="#161727"/>
<line x1="805.569" y1="2.18889e-08" x2="805.569" y2="1201.02" stroke="#161727"/>
<line x1="909.569" y1="2.18889e-08" x2="909.569" y2="1201.02" stroke="#161727"/>
<line x1="1013.57" y1="2.18889e-08" x2="1013.57" y2="1201.02" stroke="#161727"/>
<line x1="1117.57" y1="2.18889e-08" x2="1117.57" y2="1201.02" stroke="#161727"/>
<line x1="1221.57" y1="2.18889e-08" x2="1221.57" y2="1201.02" stroke="#161727"/>
<line x1="1325.57" y1="2.18889e-08" x2="1325.57" y2="1201.02" stroke="#161727"/>
<line x1="1429.57" y1="2.18889e-08" x2="1429.57" y2="1201.02" stroke="#161727"/>
<line x1="1637.57" y1="2.18889e-08" x2="1637.57" y2="1201.02" stroke="#161727"/>
<line x1="1741.57" y1="2.18889e-08" x2="1741.57" y2="1201.02" stroke="#161727"/>
<line x1="1533.57" y1="2.18889e-08" x2="1533.57" y2="1201.02" stroke="#161727"/>
<line x1="-2.72062e-08" y1="125.033" x2="1820" y2="125.033" stroke="#161727"/>
<line x1="-2.72062e-08" y1="231.945" x2="1820" y2="231.945" stroke="#161727"/>
<line x1="-2.72062e-08" y1="338.857" x2="1820" y2="338.856" stroke="#161727"/>
<line x1="-2.72062e-08" y1="445.769" x2="1820" y2="445.768" stroke="#161727"/>
<line x1="-2.72062e-08" y1="552.68" x2="1820" y2="552.68" stroke="#161727"/>
<line x1="-2.72062e-08" y1="659.592" x2="1820" y2="659.592" stroke="#161727"/>
<line x1="-2.72062e-08" y1="766.503" x2="1820" y2="766.503" stroke="#161727"/>
<line x1="-2.72062e-08" y1="873.415" x2="1820" y2="873.415" stroke="#161727"/>
<line x1="-2.72062e-08" y1="1087.24" x2="1820" y2="1087.24" stroke="#161727"/>
<line x1="-2.72062e-08" y1="980.327" x2="1820" y2="980.327" stroke="#161727"/>
</svg>
