<svg width="28" height="35" viewBox="0 0 28 35" fill="none" xmlns="http://www.w3.org/2000/svg">
<mask id="mask0_64_59" style="mask-type:luminance" maskUnits="userSpaceOnUse" x="0" y="0" width="28" height="35">
<path d="M28 0.121826H0V34.1218H28V0.121826Z" fill="white"/>
</mask>
<g mask="url(#mask0_64_59)">
<path d="M0.688553 20.7153C-1.24715 16.0643 1.04001 10.7355 5.79278 8.81176L27.3126 0.121826C29.2484 4.77285 26.9558 10.1016 22.203 12.0254L9.29651 17.2393C4.54377 19.1577 2.25659 24.4864 4.19229 29.1374L0.688553 20.7153Z" fill="#00AFF0"/>
<path d="M0.68831 20.7153C-1.2474 16.0643 1.03977 10.7355 5.79252 8.81176L27.3124 0.121826C29.2481 4.77285 26.9556 10.1016 22.2028 12.0254L9.29625 17.2393C4.5435 19.1577 2.25635 24.4864 4.19207 29.1374L0.68831 20.7153Z" fill="#00AFF0"/>
<path d="M27.3125 0.127319C29.2482 4.77834 26.9556 10.1071 22.2028 12.0309L9.29629 17.2394C5.07885 18.9391 2.80248 23.3332 3.69464 27.5525C-4.42127 8.03022 20.9592 14.9439 27.3125 0.127319Z" fill="#008CCF"/>
<path d="M7.39298 28.4378C6.08449 25.2953 7.63088 21.699 10.8427 20.4037L25.3767 14.5394C26.6798 17.682 25.1388 21.2782 21.927 22.5735L13.2055 26.0877C9.99914 27.383 8.45275 30.9792 9.75583 34.1218L7.39298 28.4378Z" fill="#00AFF0"/>
<path d="M25.3713 14.534C26.6744 17.6766 25.1334 21.2728 21.9216 22.5681L13.2056 26.0877C10.3561 27.2355 8.82047 30.2032 9.42606 33.0506C3.93795 19.8737 21.0782 24.5356 25.3713 14.534Z" fill="#008CCF"/>
</g>
</svg>
