<svg width="530" height="439" viewBox="0 0 530 439" fill="none" xmlns="http://www.w3.org/2000/svg">
<rect x="2.25293" y="2" width="525.21" height="434.84" rx="8" fill="#11111C" stroke="url(#paint0_radial_57_766)" stroke-width="4"/>
<circle cx="264.857" cy="219.42" r="108.575" fill="#171725"/>
<path d="M369.216 42.8738C369.271 42.8738 369.329 42.8738 369.384 42.8738C369.574 42.9338 369.677 43.0729 369.761 43.2456C370.253 44.2508 370.749 45.256 371.243 46.2611C371.279 46.3355 371.318 46.3739 371.409 46.3859C372.529 46.5466 373.649 46.7169 374.77 46.8753C375.012 46.9088 375.18 47.0072 375.262 47.2399C375.262 47.3047 375.262 47.367 375.262 47.4318C375.19 47.535 375.13 47.6501 375.041 47.7365C374.237 48.5281 373.429 49.3126 372.62 50.0995C372.563 50.1546 372.539 50.2074 372.551 50.2866C372.74 51.3781 372.93 52.4721 373.117 53.566C373.138 53.6859 373.16 53.8179 373.134 53.933C373.064 54.2473 372.714 54.3456 372.448 54.2017C371.502 53.6931 370.543 53.2085 369.602 52.6928C369.377 52.568 369.214 52.568 368.988 52.6904C368.038 53.2085 367.076 53.7027 366.119 54.2065C365.949 54.2953 365.778 54.3001 365.622 54.1825C365.469 54.0698 365.409 53.9138 365.443 53.7195C365.642 52.568 365.836 51.4141 366.035 50.2626C366.047 50.1906 366.026 50.1522 365.98 50.1091C365.658 49.7972 365.337 49.4853 365.018 49.1735C364.502 48.6745 363.984 48.1755 363.473 47.6693C363.204 47.403 363.317 46.9904 363.679 46.9016C363.806 46.8705 363.938 46.8561 364.068 46.8369C365.1 46.6857 366.129 46.5322 367.16 46.3883C367.266 46.3739 367.309 46.3283 367.35 46.2419C367.837 45.2512 368.329 44.2604 368.813 43.2672C368.904 43.0849 369.012 42.9338 369.216 42.8738Z" fill="#EBB308"/>
<path d="M385.153 42.8738C385.208 42.8738 385.266 42.8738 385.321 42.8738C385.511 42.9338 385.614 43.0729 385.698 43.2456C386.19 44.2508 386.686 45.256 387.18 46.2611C387.216 46.3355 387.255 46.3739 387.346 46.3859C388.466 46.5466 389.586 46.7169 390.707 46.8753C390.949 46.9088 391.117 47.0072 391.199 47.2399C391.199 47.3047 391.199 47.367 391.199 47.4318C391.127 47.535 391.067 47.6501 390.978 47.7365C390.174 48.5281 389.366 49.3126 388.557 50.0995C388.5 50.1546 388.476 50.2074 388.488 50.2866C388.677 51.3781 388.867 52.4721 389.054 53.566C389.075 53.6859 389.097 53.8179 389.071 53.933C389.001 54.2473 388.651 54.3456 388.385 54.2017C387.439 53.6931 386.48 53.2085 385.539 52.6928C385.314 52.568 385.151 52.568 384.925 52.6904C383.975 53.2085 383.013 53.7027 382.056 54.2065C381.886 54.2953 381.715 54.3001 381.56 54.1825C381.406 54.0698 381.346 53.9138 381.38 53.7195C381.579 52.568 381.773 51.4141 381.972 50.2626C381.984 50.1906 381.963 50.1522 381.917 50.1091C381.595 49.7972 381.274 49.4853 380.955 49.1735C380.439 48.6745 379.921 48.1755 379.41 47.6693C379.141 47.403 379.254 46.9904 379.616 46.9016C379.743 46.8705 379.875 46.8561 380.005 46.8369C381.037 46.6857 382.066 46.5322 383.097 46.3883C383.203 46.3739 383.246 46.3283 383.287 46.2419C383.774 45.2512 384.266 44.2604 384.75 43.2672C384.841 43.0849 384.949 42.9338 385.153 42.8738Z" fill="#EBB308"/>
<path d="M401.09 42.8738C401.145 42.8738 401.202 42.8738 401.258 42.8738C401.447 42.9338 401.55 43.0729 401.634 43.2456C402.126 44.2508 402.623 45.256 403.117 46.2611C403.153 46.3355 403.191 46.3739 403.282 46.3859C404.403 46.5466 405.523 46.7169 406.643 46.8753C406.886 46.9088 407.054 47.0072 407.135 47.2399C407.135 47.3047 407.135 47.367 407.135 47.4318C407.063 47.535 407.003 47.6501 406.914 47.7365C406.111 48.5281 405.302 49.3126 404.494 50.0995C404.436 50.1546 404.412 50.2074 404.424 50.2866C404.614 51.3781 404.803 52.4721 404.99 53.566C405.012 53.6859 405.034 53.8179 405.007 53.933C404.938 54.2473 404.587 54.3456 404.321 54.2017C403.376 53.6931 402.416 53.2085 401.476 52.6928C401.25 52.568 401.087 52.568 400.862 52.6904C399.912 53.2085 398.95 53.7027 397.993 54.2065C397.822 54.2953 397.652 54.3001 397.496 54.1825C397.342 54.0698 397.283 53.9138 397.316 53.7195C397.515 52.568 397.71 51.4141 397.909 50.2626C397.921 50.1906 397.899 50.1522 397.853 50.1091C397.532 49.7972 397.211 49.4853 396.891 49.1735C396.376 48.6745 395.858 48.1755 395.347 47.6693C395.078 47.403 395.191 46.9904 395.553 46.9016C395.68 46.8705 395.812 46.8561 395.941 46.8369C396.973 46.6857 398.002 46.5322 399.034 46.3883C399.139 46.3739 399.183 46.3283 399.223 46.2419C399.71 45.2512 400.202 44.2604 400.687 43.2672C400.778 43.0849 400.886 42.9338 401.09 42.8738Z" fill="#EBB308"/>
<path d="M417.027 42.8738C417.082 42.8738 417.139 42.8738 417.195 42.8738C417.384 42.9338 417.487 43.0729 417.571 43.2456C418.063 44.2508 418.56 45.256 419.054 46.2611C419.09 46.3355 419.128 46.3739 419.219 46.3859C420.34 46.5466 421.46 46.7169 422.58 46.8753C422.823 46.9088 422.991 47.0072 423.072 47.2399C423.072 47.3047 423.072 47.367 423.072 47.4318C423 47.535 422.94 47.6501 422.851 47.7365C422.048 48.5281 421.239 49.3126 420.431 50.0995C420.373 50.1546 420.349 50.2074 420.361 50.2866C420.551 51.3781 420.74 52.4721 420.927 53.566C420.949 53.6859 420.971 53.8179 420.944 53.933C420.875 54.2473 420.524 54.3456 420.258 54.2017C419.313 53.6931 418.353 53.2085 417.413 52.6928C417.187 52.568 417.024 52.568 416.799 52.6904C415.849 53.2085 414.887 53.7027 413.93 54.2065C413.759 54.2953 413.589 54.3001 413.433 54.1825C413.28 54.0698 413.22 53.9138 413.253 53.7195C413.452 52.568 413.647 51.4141 413.846 50.2626C413.858 50.1906 413.836 50.1522 413.79 50.1091C413.469 49.7972 413.148 49.4853 412.829 49.1735C412.313 48.6745 411.795 48.1755 411.284 47.6693C411.015 47.403 411.128 46.9904 411.49 46.9016C411.617 46.8705 411.749 46.8561 411.879 46.8369C412.91 46.6857 413.939 46.5322 414.971 46.3883C415.076 46.3739 415.12 46.3283 415.16 46.2419C415.647 45.2512 416.139 44.2604 416.624 43.2672C416.715 43.0849 416.823 42.9338 417.027 42.8738Z" fill="#EBB308"/>
<path d="M432.964 42.8738C433.019 42.8738 433.076 42.8738 433.132 42.8738C433.321 42.9338 433.424 43.0729 433.508 43.2456C434 44.2508 434.497 45.256 434.991 46.2611C435.027 46.3355 435.065 46.3739 435.156 46.3859C436.277 46.5466 437.397 46.7169 438.517 46.8753C438.76 46.9088 438.928 47.0072 439.009 47.2399C439.009 47.3047 439.009 47.367 439.009 47.4318C438.937 47.535 438.877 47.6501 438.788 47.7365C437.985 48.5281 437.176 49.3126 436.368 50.0995C436.31 50.1546 436.286 50.2074 436.298 50.2866C436.488 51.3781 436.677 52.4721 436.864 53.566C436.886 53.6859 436.908 53.8179 436.881 53.933C436.812 54.2473 436.461 54.3456 436.195 54.2017C435.25 53.6931 434.29 53.2085 433.35 52.6928C433.124 52.568 432.961 52.568 432.736 52.6904C431.786 53.2085 430.824 53.7027 429.867 54.2065C429.696 54.2953 429.526 54.3001 429.37 54.1825C429.217 54.0698 429.157 53.9138 429.19 53.7195C429.389 52.568 429.584 51.4141 429.783 50.2626C429.795 50.1906 429.773 50.1522 429.727 50.1091C429.406 49.7972 429.085 49.4853 428.766 49.1735C428.25 48.6745 427.732 48.1755 427.221 47.6693C426.952 47.403 427.065 46.9904 427.427 46.9016C427.554 46.8705 427.686 46.8561 427.816 46.8369C428.847 46.6857 429.876 46.5322 430.908 46.3883C431.013 46.3739 431.057 46.3283 431.097 46.2419C431.584 45.2512 432.076 44.2604 432.561 43.2672C432.652 43.0849 432.76 42.9338 432.964 42.8738Z" fill="#EBB308"/>
<path d="M138.665 318.048C138.721 318.048 138.778 318.048 138.833 318.048C139.023 318.108 139.126 318.247 139.21 318.42C139.702 319.425 140.198 320.43 140.692 321.435C140.728 321.51 140.767 321.548 140.858 321.56C141.978 321.721 143.099 321.891 144.219 322.05C144.461 322.083 144.629 322.182 144.711 322.414C144.711 322.479 144.711 322.541 144.711 322.606C144.639 322.709 144.579 322.824 144.49 322.911C143.686 323.702 142.878 324.487 142.07 325.274C142.012 325.329 141.988 325.382 142 325.461C142.189 326.552 142.379 327.646 142.566 328.74C142.588 328.86 142.609 328.992 142.583 329.107C142.513 329.422 142.163 329.52 141.897 329.376C140.952 328.867 139.992 328.383 139.052 327.867C138.826 327.742 138.663 327.742 138.437 327.865C137.487 328.383 136.525 328.877 135.568 329.381C135.398 329.47 135.228 329.474 135.072 329.357C134.918 329.244 134.858 329.088 134.892 328.894C135.091 327.742 135.285 326.588 135.484 325.437C135.496 325.365 135.475 325.327 135.429 325.283C135.108 324.972 134.786 324.66 134.467 324.348C133.951 323.849 133.433 323.35 132.922 322.844C132.654 322.577 132.766 322.165 133.129 322.076C133.256 322.045 133.388 322.03 133.517 322.011C134.549 321.86 135.578 321.707 136.609 321.563C136.715 321.548 136.758 321.503 136.799 321.416C137.286 320.425 137.778 319.435 138.262 318.442C138.354 318.259 138.461 318.108 138.665 318.048Z" fill="#EBB308"/>
<path d="M154.602 318.048C154.658 318.048 154.715 318.048 154.77 318.048C154.96 318.108 155.063 318.247 155.147 318.42C155.639 319.425 156.135 320.43 156.63 321.435C156.665 321.51 156.704 321.548 156.795 321.56C157.915 321.721 159.036 321.891 160.156 322.05C160.398 322.083 160.566 322.182 160.648 322.414C160.648 322.479 160.648 322.541 160.648 322.606C160.576 322.709 160.516 322.824 160.427 322.911C159.623 323.702 158.815 324.487 158.007 325.274C157.949 325.329 157.925 325.382 157.937 325.461C158.126 326.552 158.316 327.646 158.503 328.74C158.525 328.86 158.546 328.992 158.52 329.107C158.45 329.422 158.1 329.52 157.834 329.376C156.889 328.867 155.929 328.383 154.989 327.867C154.763 327.742 154.6 327.742 154.374 327.865C153.424 328.383 152.463 328.877 151.505 329.381C151.335 329.47 151.165 329.474 151.009 329.357C150.855 329.244 150.795 329.088 150.829 328.894C151.028 327.742 151.222 326.588 151.421 325.437C151.433 325.365 151.412 325.327 151.366 325.283C151.045 324.972 150.723 324.66 150.404 324.348C149.888 323.849 149.37 323.35 148.859 322.844C148.591 322.577 148.703 322.165 149.066 322.076C149.193 322.045 149.325 322.03 149.454 322.011C150.486 321.86 151.515 321.707 152.546 321.563C152.652 321.548 152.695 321.503 152.736 321.416C153.223 320.425 153.715 319.435 154.199 318.442C154.291 318.259 154.398 318.108 154.602 318.048Z" fill="#EBB308"/>
<path d="M170.539 318.048C170.594 318.048 170.652 318.048 170.707 318.048C170.896 318.108 171 318.247 171.083 318.42C171.575 319.425 172.072 320.43 172.566 321.435C172.602 321.51 172.64 321.548 172.732 321.56C173.852 321.721 174.972 321.891 176.093 322.05C176.335 322.083 176.503 322.182 176.584 322.414C176.584 322.479 176.584 322.541 176.584 322.606C176.512 322.709 176.452 322.824 176.364 322.911C175.56 323.702 174.751 324.487 173.943 325.274C173.885 325.329 173.861 325.382 173.873 325.461C174.063 326.552 174.253 327.646 174.44 328.74C174.461 328.86 174.483 328.992 174.456 329.107C174.387 329.422 174.037 329.52 173.77 329.376C172.825 328.867 171.866 328.383 170.925 327.867C170.7 327.742 170.537 327.742 170.311 327.865C169.361 328.383 168.399 328.877 167.442 329.381C167.272 329.47 167.101 329.474 166.945 329.357C166.792 329.244 166.732 329.088 166.765 328.894C166.964 327.742 167.159 326.588 167.358 325.437C167.37 325.365 167.348 325.327 167.303 325.283C166.981 324.972 166.66 324.66 166.341 324.348C165.825 323.849 165.307 323.35 164.796 322.844C164.527 322.577 164.64 322.165 165.002 322.076C165.129 322.045 165.261 322.03 165.391 322.011C166.422 321.86 167.451 321.707 168.483 321.563C168.589 321.548 168.632 321.503 168.673 321.416C169.159 320.425 169.651 319.435 170.136 318.442C170.227 318.259 170.335 318.108 170.539 318.048Z" fill="#EBB308"/>
<path d="M186.476 318.048C186.531 318.048 186.589 318.048 186.644 318.048C186.833 318.108 186.937 318.247 187.02 318.42C187.512 319.425 188.009 320.43 188.503 321.435C188.539 321.51 188.577 321.548 188.669 321.56C189.789 321.721 190.909 321.891 192.03 322.05C192.272 322.083 192.44 322.182 192.521 322.414C192.521 322.479 192.521 322.541 192.521 322.606C192.449 322.709 192.389 322.824 192.301 322.911C191.497 323.702 190.689 324.487 189.88 325.274C189.822 325.329 189.798 325.382 189.81 325.461C190 326.552 190.19 327.646 190.377 328.74C190.398 328.86 190.42 328.992 190.393 329.107C190.324 329.422 189.974 329.52 189.707 329.376C188.762 328.867 187.803 328.383 186.862 327.867C186.637 327.742 186.474 327.742 186.248 327.865C185.298 328.383 184.336 328.877 183.379 329.381C183.209 329.47 183.038 329.474 182.882 329.357C182.729 329.244 182.669 329.088 182.702 328.894C182.901 327.742 183.096 326.588 183.295 325.437C183.307 325.365 183.285 325.327 183.24 325.283C182.918 324.972 182.597 324.66 182.278 324.348C181.762 323.849 181.244 323.35 180.733 322.844C180.464 322.577 180.577 322.165 180.939 322.076C181.066 322.045 181.198 322.03 181.328 322.011C182.359 321.86 183.388 321.707 184.42 321.563C184.526 321.548 184.569 321.503 184.61 321.416C185.097 320.425 185.588 319.435 186.073 318.442C186.164 318.259 186.272 318.108 186.476 318.048Z" fill="#EBB308"/>
<path d="M202.413 318.048C202.468 318.048 202.526 318.048 202.581 318.048C202.77 318.108 202.874 318.247 202.957 318.42C203.449 319.425 203.946 320.43 204.44 321.435C204.476 321.51 204.514 321.548 204.606 321.56C205.726 321.721 206.846 321.891 207.967 322.05C208.209 322.083 208.377 322.182 208.458 322.414C208.458 322.479 208.458 322.541 208.458 322.606C208.386 322.709 208.326 322.824 208.238 322.911C207.434 323.702 206.626 324.487 205.817 325.274C205.759 325.329 205.735 325.382 205.747 325.461C205.937 326.552 206.127 327.646 206.314 328.74C206.335 328.86 206.357 328.992 206.33 329.107C206.261 329.422 205.911 329.52 205.644 329.376C204.699 328.867 203.74 328.383 202.799 327.867C202.574 327.742 202.411 327.742 202.185 327.865C201.235 328.383 200.273 328.877 199.316 329.381C199.146 329.47 198.975 329.474 198.819 329.357C198.666 329.244 198.606 329.088 198.639 328.894C198.838 327.742 199.033 326.588 199.232 325.437C199.244 325.365 199.222 325.327 199.177 325.283C198.855 324.972 198.534 324.66 198.215 324.348C197.699 323.849 197.181 323.35 196.67 322.844C196.401 322.577 196.514 322.165 196.876 322.076C197.003 322.045 197.135 322.03 197.265 322.011C198.296 321.86 199.325 321.707 200.357 321.563C200.463 321.548 200.506 321.503 200.547 321.416C201.034 320.425 201.525 319.435 202.01 318.442C202.101 318.259 202.209 318.108 202.413 318.048Z" fill="#EBB308"/>
<path d="M99.2166 64.644C99.2718 64.644 99.3294 64.644 99.3846 64.644C99.5741 64.704 99.6772 64.8432 99.7612 65.0159C100.253 66.0211 100.75 67.0262 101.244 68.0314C101.28 68.1058 101.318 68.1441 101.409 68.1561C102.53 68.3169 103.65 68.4872 104.77 68.6455C105.013 68.6791 105.18 68.7775 105.262 69.0102C105.262 69.0749 105.262 69.1373 105.262 69.2021C105.19 69.3052 105.13 69.4204 105.041 69.5068C104.238 70.2984 103.429 71.0829 102.621 71.8697C102.563 71.9249 102.539 71.9777 102.551 72.0569C102.741 73.1484 102.93 74.2423 103.117 75.3362C103.139 75.4562 103.161 75.5881 103.134 75.7033C103.065 76.0175 102.714 76.1159 102.448 75.972C101.503 75.4634 100.543 74.9788 99.6029 74.463C99.3774 74.3383 99.2142 74.3383 98.9887 74.4606C98.0387 74.9788 97.0768 75.473 96.1196 75.9768C95.9492 76.0655 95.7789 76.0703 95.623 75.9528C95.4694 75.84 95.4095 75.6841 95.4431 75.4898C95.6422 74.3383 95.8365 73.1844 96.0356 72.0329C96.0476 71.9609 96.026 71.9225 95.9804 71.8793C95.659 71.5675 95.3375 71.2556 95.0184 70.9437C94.5027 70.4447 93.9845 69.9458 93.4735 69.4396C93.2048 69.1733 93.3176 68.7607 93.6798 68.6719C93.807 68.6407 93.9389 68.6263 94.0685 68.6071C95.1 68.456 96.1292 68.3025 97.1607 68.1585C97.2663 68.1441 97.3095 68.0986 97.3502 68.0122C97.8372 67.0214 98.329 66.0306 98.8136 65.0375C98.9048 64.8552 99.0127 64.704 99.2166 64.644Z" fill="#EBB308"/>
<path d="M115.154 64.644C115.209 64.644 115.266 64.644 115.322 64.644C115.511 64.704 115.614 64.8432 115.698 65.0159C116.19 66.0211 116.687 67.0262 117.181 68.0314C117.217 68.1058 117.255 68.1441 117.346 68.1561C118.467 68.3169 119.587 68.4872 120.707 68.6455C120.95 68.6791 121.117 68.7775 121.199 69.0102C121.199 69.0749 121.199 69.1373 121.199 69.2021C121.127 69.3052 121.067 69.4204 120.978 69.5068C120.175 70.2984 119.366 71.0829 118.558 71.8697C118.5 71.9249 118.476 71.9777 118.488 72.0569C118.678 73.1484 118.867 74.2423 119.054 75.3362C119.076 75.4562 119.098 75.5881 119.071 75.7033C119.002 76.0175 118.651 76.1159 118.385 75.972C117.44 75.4634 116.48 74.9788 115.54 74.463C115.314 74.3383 115.151 74.3383 114.926 74.4606C113.976 74.9788 113.014 75.473 112.057 75.9768C111.886 76.0655 111.716 76.0703 111.56 75.9528C111.406 75.84 111.346 75.6841 111.38 75.4898C111.579 74.3383 111.774 73.1844 111.973 72.0329C111.985 71.9609 111.963 71.9225 111.917 71.8793C111.596 71.5675 111.275 71.2556 110.955 70.9437C110.44 70.4447 109.921 69.9458 109.411 69.4396C109.142 69.1733 109.255 68.7607 109.617 68.6719C109.744 68.6407 109.876 68.6263 110.005 68.6071C111.037 68.456 112.066 68.3025 113.098 68.1585C113.203 68.1441 113.246 68.0986 113.287 68.0122C113.774 67.0214 114.266 66.0306 114.751 65.0375C114.842 64.8552 114.95 64.704 115.154 64.644Z" fill="#EBB308"/>
<path d="M131.09 64.644C131.145 64.644 131.203 64.644 131.258 64.644C131.448 64.704 131.551 64.8432 131.635 65.0159C132.127 66.0211 132.623 67.0262 133.117 68.0314C133.153 68.1058 133.192 68.1441 133.283 68.1561C134.403 68.3169 135.523 68.4872 136.644 68.6455C136.886 68.6791 137.054 68.7775 137.136 69.0102C137.136 69.0749 137.136 69.1373 137.136 69.2021C137.064 69.3052 137.004 69.4204 136.915 69.5068C136.111 70.2984 135.303 71.0829 134.494 71.8697C134.437 71.9249 134.413 71.9777 134.425 72.0569C134.614 73.1484 134.804 74.2423 134.991 75.3362C135.012 75.4562 135.034 75.5881 135.008 75.7033C134.938 76.0175 134.588 76.1159 134.322 75.972C133.376 75.4634 132.417 74.9788 131.476 74.463C131.251 74.3383 131.088 74.3383 130.862 74.4606C129.912 74.9788 128.95 75.473 127.993 75.9768C127.823 76.0655 127.652 76.0703 127.497 75.9528C127.343 75.84 127.283 75.6841 127.317 75.4898C127.516 74.3383 127.71 73.1844 127.909 72.0329C127.921 71.9609 127.9 71.9225 127.854 71.8793C127.533 71.5675 127.211 71.2556 126.892 70.9437C126.376 70.4447 125.858 69.9458 125.347 69.4396C125.078 69.1733 125.191 68.7607 125.553 68.6719C125.68 68.6407 125.812 68.6263 125.942 68.6071C126.974 68.456 128.003 68.3025 129.034 68.1585C129.14 68.1441 129.183 68.0986 129.224 68.0122C129.711 67.0214 130.203 66.0306 130.687 65.0375C130.778 64.8552 130.886 64.704 131.09 64.644Z" fill="#EBB308"/>
<rect x="45.8174" y="81.7678" width="138.826" height="58.1539" rx="6" fill="#1F1F32"/>
<circle cx="77.0759" cy="110.845" r="18.4089" fill="#DAB1FB"/>
<mask id="mask0_57_766" style="mask-type:alpha" maskUnits="userSpaceOnUse" x="63" y="97" width="28" height="28">
<rect x="63.3237" y="97.0928" width="27.5045" height="27.5045" fill="#D9D9D9"/>
</mask>
<g mask="url(#mask0_57_766)">
<path d="M77.0759 110.845C75.8153 110.845 74.7361 110.396 73.8384 109.498C72.9407 108.601 72.4918 107.521 72.4918 106.261C72.4918 105 72.9407 103.921 73.8384 103.023C74.7361 102.126 75.8153 101.677 77.0759 101.677C78.3365 101.677 79.4157 102.126 80.3134 103.023C81.2111 103.921 81.66 105 81.66 106.261C81.66 107.521 81.2111 108.601 80.3134 109.498C79.4157 110.396 78.3365 110.845 77.0759 110.845ZM67.9077 120.013V116.804C67.9077 116.155 68.0748 115.558 68.4091 115.014C68.7434 114.469 69.1874 114.054 69.7413 113.767C70.9256 113.175 72.1289 112.731 73.3513 112.435C74.5737 112.139 75.8153 111.991 77.0759 111.991C78.3365 111.991 79.578 112.139 80.8004 112.435C82.0229 112.731 83.2262 113.175 84.4104 113.767C84.9643 114.054 85.4084 114.469 85.7427 115.014C86.0769 115.558 86.244 116.155 86.244 116.804V120.013H67.9077Z" fill="#A771D3"/>
</g>
<path d="M105.485 125.983H151.485" stroke="#393959" stroke-width="4" stroke-linecap="round"/>
<path d="M105.485 117.983L133.265 117.983" stroke="#393959" stroke-width="4" stroke-linecap="round"/>
<path d="M145.342 105.935C144.654 105.935 144.07 105.823 143.59 105.599C143.11 105.367 142.718 105.055 142.414 104.663C142.11 104.263 141.886 103.807 141.742 103.295C141.606 102.775 141.538 102.231 141.538 101.663V100.991C141.538 100.183 141.674 99.4546 141.946 98.8066C142.218 98.1586 142.634 97.6466 143.194 97.2706C143.754 96.8866 144.47 96.6946 145.342 96.6946C146.206 96.6946 146.918 96.8866 147.478 97.2706C148.038 97.6466 148.45 98.1586 148.714 98.8066C148.986 99.4546 149.122 100.183 149.122 100.991V101.663C149.122 102.231 149.05 102.775 148.906 103.295C148.77 103.807 148.55 104.263 148.246 104.663C147.95 105.055 147.562 105.367 147.082 105.599C146.602 105.823 146.022 105.935 145.342 105.935ZM145.342 104.375C146.054 104.375 146.578 104.131 146.914 103.643C147.25 103.147 147.418 102.379 147.418 101.339C147.418 100.235 147.246 99.4466 146.902 98.9746C146.558 98.4946 146.038 98.2546 145.342 98.2546C144.638 98.2546 144.11 98.4946 143.758 98.9746C143.414 99.4466 143.242 100.227 143.242 101.315C143.242 102.363 143.414 103.135 143.758 103.631C144.102 104.127 144.63 104.375 145.342 104.375Z" fill="#94A2C9"/>
<path d="M136.954 105.935C136.282 105.935 135.702 105.807 135.214 105.551C134.734 105.295 134.366 104.955 134.11 104.531C133.854 104.099 133.726 103.619 133.726 103.091H135.37C135.37 103.515 135.51 103.859 135.79 104.123C136.078 104.379 136.466 104.507 136.954 104.507C137.282 104.507 137.562 104.447 137.794 104.327C138.034 104.199 138.218 104.027 138.346 103.811C138.474 103.587 138.538 103.331 138.538 103.043C138.538 102.611 138.398 102.259 138.118 101.987C137.838 101.707 137.454 101.567 136.966 101.567C136.726 101.567 136.514 101.599 136.33 101.663C136.154 101.727 135.998 101.811 135.862 101.915L135.082 100.571L137.962 98.6025L137.854 98.3985H134.086V96.9465H139.81V98.6985L136.846 100.667L135.922 100.499C136.074 100.451 136.238 100.415 136.414 100.391C136.59 100.359 136.782 100.343 136.99 100.343C137.654 100.343 138.222 100.459 138.694 100.691C139.174 100.915 139.542 101.227 139.798 101.627C140.054 102.027 140.182 102.487 140.182 103.007V103.163C140.182 103.667 140.054 104.131 139.798 104.555C139.542 104.971 139.174 105.307 138.694 105.563C138.214 105.811 137.634 105.935 136.954 105.935Z" fill="#94A2C9"/>
<path d="M130.743 105.706V103.786H132.615V105.706H130.743Z" fill="#94A2C9"/>
<path d="M125.537 105.935C124.849 105.935 124.265 105.823 123.785 105.599C123.305 105.367 122.913 105.055 122.609 104.663C122.305 104.263 122.081 103.807 121.937 103.295C121.801 102.775 121.733 102.231 121.733 101.663V100.991C121.733 100.183 121.869 99.4546 122.141 98.8066C122.413 98.1586 122.829 97.6466 123.389 97.2706C123.949 96.8866 124.665 96.6946 125.537 96.6946C126.401 96.6946 127.113 96.8866 127.673 97.2706C128.233 97.6466 128.645 98.1586 128.909 98.8066C129.181 99.4546 129.317 100.183 129.317 100.991V101.663C129.317 102.231 129.245 102.775 129.101 103.295C128.965 103.807 128.745 104.263 128.441 104.663C128.145 105.055 127.757 105.367 127.277 105.599C126.797 105.823 126.217 105.935 125.537 105.935ZM125.537 104.375C126.249 104.375 126.773 104.131 127.109 103.643C127.445 103.147 127.613 102.379 127.613 101.339C127.613 100.235 127.441 99.4466 127.097 98.9746C126.753 98.4946 126.233 98.2546 125.537 98.2546C124.833 98.2546 124.305 98.4946 123.953 98.9746C123.609 99.4466 123.437 100.227 123.437 101.315C123.437 102.363 123.609 103.135 123.953 103.631C124.297 104.127 124.825 104.375 125.537 104.375Z" fill="#94A2C9"/>
<path d="M118.111 105.707V98.0025L118.639 98.4105H116.323V96.9465H119.803V105.707H118.111Z" fill="#94A2C9"/>
<path d="M109.409 105.742C108.657 105.742 108.025 105.63 107.513 105.406C107.009 105.174 106.625 104.85 106.361 104.434C106.105 104.01 105.977 103.51 105.977 102.934H107.513C107.513 103.182 107.577 103.418 107.705 103.642C107.833 103.866 108.033 104.05 108.305 104.194C108.585 104.33 108.953 104.398 109.409 104.398C110.009 104.398 110.465 104.282 110.777 104.05C111.089 103.818 111.245 103.53 111.245 103.186C111.245 102.874 111.109 102.614 110.837 102.406C110.573 102.198 110.161 102.07 109.601 102.022L108.929 101.962C108.105 101.882 107.449 101.634 106.961 101.218C106.473 100.794 106.229 100.194 106.229 99.4185C106.229 98.8825 106.349 98.4305 106.589 98.0625C106.837 97.6945 107.189 97.4185 107.645 97.2345C108.109 97.0425 108.657 96.9465 109.289 96.9465C109.945 96.9465 110.501 97.0545 110.957 97.2705C111.421 97.4865 111.773 97.7985 112.013 98.2065C112.261 98.6065 112.385 99.0945 112.385 99.6705H110.849C110.849 99.4225 110.789 99.1945 110.669 98.9865C110.557 98.7785 110.385 98.6105 110.153 98.4825C109.929 98.3545 109.641 98.2905 109.289 98.2905C108.969 98.2905 108.697 98.3385 108.473 98.4345C108.249 98.5305 108.077 98.6625 107.957 98.8305C107.837 98.9985 107.777 99.1945 107.777 99.4185C107.777 99.6985 107.877 99.9465 108.077 100.162C108.285 100.378 108.617 100.506 109.073 100.546L109.745 100.606C110.665 100.686 111.401 100.942 111.953 101.374C112.513 101.806 112.793 102.41 112.793 103.186C112.793 103.722 112.657 104.182 112.385 104.566C112.121 104.942 111.737 105.234 111.233 105.442C110.729 105.642 110.121 105.742 109.409 105.742ZM108.677 107.254V105.502H110.069V107.254H108.677ZM108.629 97.5345V95.7825H110.021V97.5345H108.629Z" fill="#94A2C9"/>
<rect x="318.436" y="60.7178" width="138.83" height="58.1539" rx="6" fill="#1F1F32"/>
<circle cx="349.213" cy="89.7946" r="18.4089" fill="#B1FBD7"/>
<mask id="mask1_57_766" style="mask-type:alpha" maskUnits="userSpaceOnUse" x="335" y="76" width="28" height="28">
<rect x="335.46" y="76.0425" width="27.5045" height="27.5045" fill="#4BB682"/>
</mask>
<g mask="url(#mask1_57_766)">
<path d="M349.213 89.7946C347.952 89.7946 346.873 89.3458 345.975 88.4481C345.077 87.5503 344.629 86.4712 344.629 85.2105C344.629 83.9499 345.077 82.8708 345.975 81.973C346.873 81.0753 347.952 80.6265 349.213 80.6265C350.473 80.6265 351.552 81.0753 352.45 81.973C353.348 82.8708 353.797 83.9499 353.797 85.2105C353.797 86.4712 353.348 87.5503 352.45 88.4481C351.552 89.3458 350.473 89.7946 349.213 89.7946ZM340.044 98.9628V95.7539C340.044 95.1045 340.212 94.5076 340.546 93.9633C340.88 93.4189 341.324 93.0035 341.878 92.717C343.062 92.1249 344.266 91.6808 345.488 91.3847C346.71 91.0887 347.952 90.9406 349.213 90.9406C350.473 90.9406 351.715 91.0887 352.937 91.3847C354.16 91.6808 355.363 92.1249 356.547 92.717C357.101 93.0035 357.545 93.4189 357.879 93.9633C358.214 94.5076 358.381 95.1045 358.381 95.7539V98.9628H340.044Z" fill="#4BB682"/>
</g>
<path d="M377.622 104.933H444.676" stroke="#393959" stroke-width="4" stroke-linecap="round"/>
<path d="M377.622 96.9329L405.401 96.9329" stroke="#393959" stroke-width="4" stroke-linecap="round"/>
<path d="M413.853 96.9329L435.041 96.9329" stroke="#585877" stroke-width="4" stroke-linecap="round"/>
<path d="M420.033 84.8845C419.345 84.8845 418.761 84.7725 418.281 84.5485C417.801 84.3165 417.409 84.0045 417.105 83.6125C416.801 83.2125 416.577 82.7565 416.433 82.2445C416.297 81.7245 416.229 81.1805 416.229 80.6125V79.9405C416.229 79.1325 416.365 78.4045 416.637 77.7565C416.909 77.1085 417.325 76.5965 417.885 76.2205C418.445 75.8365 419.161 75.6445 420.033 75.6445C420.897 75.6445 421.609 75.8365 422.169 76.2205C422.729 76.5965 423.141 77.1085 423.405 77.7565C423.677 78.4045 423.813 79.1325 423.813 79.9405V80.6125C423.813 81.1805 423.741 81.7245 423.597 82.2445C423.461 82.7565 423.241 83.2125 422.937 83.6125C422.641 84.0045 422.253 84.3165 421.773 84.5485C421.293 84.7725 420.713 84.8845 420.033 84.8845ZM420.033 83.3245C420.745 83.3245 421.269 83.0805 421.605 82.5925C421.941 82.0965 422.109 81.3285 422.109 80.2885C422.109 79.1845 421.937 78.3965 421.593 77.9245C421.249 77.4445 420.729 77.2045 420.033 77.2045C419.329 77.2045 418.801 77.4445 418.449 77.9245C418.105 78.3965 417.933 79.1765 417.933 80.2645C417.933 81.3125 418.105 82.0845 418.449 82.5805C418.793 83.0765 419.321 83.3245 420.033 83.3245Z" fill="#94A2C9"/>
<path d="M410.963 84.8845C410.275 84.8845 409.691 84.7725 409.211 84.5485C408.731 84.3165 408.339 84.0045 408.035 83.6125C407.731 83.2125 407.507 82.7565 407.363 82.2445C407.227 81.7245 407.159 81.1805 407.159 80.6125V79.9405C407.159 79.1325 407.295 78.4045 407.567 77.7565C407.839 77.1085 408.255 76.5965 408.815 76.2205C409.375 75.8365 410.091 75.6445 410.963 75.6445C411.827 75.6445 412.539 75.8365 413.099 76.2205C413.659 76.5965 414.071 77.1085 414.335 77.7565C414.607 78.4045 414.743 79.1325 414.743 79.9405V80.6125C414.743 81.1805 414.671 81.7245 414.527 82.2445C414.391 82.7565 414.171 83.2125 413.867 83.6125C413.571 84.0045 413.183 84.3165 412.703 84.5485C412.223 84.7725 411.643 84.8845 410.963 84.8845ZM410.963 83.3245C411.675 83.3245 412.199 83.0805 412.535 82.5925C412.871 82.0965 413.039 81.3285 413.039 80.2885C413.039 79.1845 412.867 78.3965 412.523 77.9245C412.179 77.4445 411.659 77.2045 410.963 77.2045C410.259 77.2045 409.731 77.4445 409.379 77.9245C409.035 78.3965 408.863 79.1765 408.863 80.2645C408.863 81.3125 409.035 82.0845 409.379 82.5805C409.723 83.0765 410.251 83.3245 410.963 83.3245Z" fill="#94A2C9"/>
<path d="M403.876 84.6563V82.7363H405.748V84.6563H403.876Z" fill="#94A2C9"/>
<path d="M399.428 84.8845C398.74 84.8845 398.148 84.7485 397.652 84.4765C397.164 84.2045 396.788 83.8445 396.524 83.3965C396.268 82.9405 396.14 82.4445 396.14 81.9085H397.784C397.784 82.2125 397.852 82.4805 397.988 82.7125C398.132 82.9445 398.328 83.1285 398.576 83.2645C398.824 83.3925 399.112 83.4565 399.44 83.4565C399.784 83.4565 400.08 83.3845 400.328 83.2405C400.576 83.0965 400.764 82.9005 400.892 82.6525C401.028 82.4045 401.096 82.1205 401.096 81.8005C401.096 81.4885 401.028 81.2085 400.892 80.9605C400.764 80.7045 400.576 80.5045 400.328 80.3605C400.088 80.2085 399.796 80.1325 399.452 80.1325C399.164 80.1325 398.892 80.1885 398.636 80.3005C398.38 80.4125 398.18 80.5605 398.036 80.7445H396.464L396.908 75.8965H401.984V77.3485H397.652L398.252 76.8805L397.964 79.9045L397.556 79.7845C397.788 79.5205 398.072 79.3005 398.408 79.1245C398.744 78.9485 399.168 78.8605 399.68 78.8605C400.328 78.8605 400.88 78.9925 401.336 79.2565C401.792 79.5205 402.14 79.8725 402.38 80.3125C402.62 80.7445 402.74 81.2165 402.74 81.7285V81.8845C402.74 82.4045 402.612 82.8925 402.356 83.3485C402.1 83.8045 401.724 84.1765 401.228 84.4645C400.74 84.7445 400.14 84.8845 399.428 84.8845Z" fill="#94A2C9"/>
<path d="M388.808 84.6565V82.9765C388.808 82.6085 388.864 82.2885 388.976 82.0165C389.096 81.7445 389.288 81.5045 389.552 81.2965C389.824 81.0805 390.18 80.8765 390.62 80.6845L392.108 80.0245C392.476 79.8565 392.756 79.6525 392.948 79.4125C393.148 79.1645 393.248 78.8485 393.248 78.4645C393.248 78.0405 393.12 77.7045 392.864 77.4565C392.616 77.2005 392.26 77.0725 391.796 77.0725C391.332 77.0725 390.972 77.2005 390.716 77.4565C390.468 77.7125 390.344 78.0685 390.344 78.5245H388.7C388.7 77.9805 388.816 77.4925 389.048 77.0605C389.28 76.6205 389.624 76.2765 390.08 76.0285C390.536 75.7725 391.108 75.6445 391.796 75.6445C392.484 75.6445 393.056 75.7685 393.512 76.0165C393.968 76.2645 394.312 76.5965 394.544 77.0125C394.776 77.4205 394.892 77.8765 394.892 78.3805V78.5365C394.892 79.1925 394.708 79.7405 394.34 80.1805C393.972 80.6125 393.432 80.9885 392.72 81.3085L391.232 81.9685C390.952 82.0885 390.756 82.2165 390.644 82.3525C390.532 82.4805 390.476 82.6565 390.476 82.8805V83.6485L390.068 83.2045H394.928V84.6565H388.808Z" fill="#94A2C9"/>
<path d="M381.546 84.6924C380.794 84.6924 380.162 84.5804 379.65 84.3564C379.146 84.1244 378.762 83.8004 378.498 83.3844C378.242 82.9604 378.114 82.4604 378.114 81.8844H379.65C379.65 82.1324 379.714 82.3684 379.842 82.5924C379.97 82.8164 380.17 83.0004 380.442 83.1444C380.722 83.2804 381.09 83.3484 381.546 83.3484C382.146 83.3484 382.602 83.2324 382.914 83.0004C383.226 82.7684 383.382 82.4804 383.382 82.1364C383.382 81.8244 383.246 81.5644 382.974 81.3564C382.71 81.1484 382.298 81.0204 381.738 80.9724L381.066 80.9124C380.242 80.8324 379.586 80.5844 379.098 80.1684C378.61 79.7444 378.366 79.1444 378.366 78.3684C378.366 77.8324 378.486 77.3804 378.726 77.0124C378.974 76.6444 379.326 76.3684 379.782 76.1844C380.246 75.9924 380.794 75.8964 381.426 75.8964C382.082 75.8964 382.638 76.0044 383.094 76.2204C383.558 76.4364 383.91 76.7484 384.15 77.1564C384.398 77.5564 384.522 78.0444 384.522 78.6204H382.986C382.986 78.3724 382.926 78.1444 382.806 77.9364C382.694 77.7284 382.522 77.5604 382.29 77.4324C382.066 77.3044 381.778 77.2404 381.426 77.2404C381.106 77.2404 380.834 77.2884 380.61 77.3844C380.386 77.4804 380.214 77.6124 380.094 77.7804C379.974 77.9484 379.914 78.1444 379.914 78.3684C379.914 78.6484 380.014 78.8964 380.214 79.1124C380.422 79.3284 380.754 79.4564 381.21 79.4964L381.882 79.5564C382.802 79.6364 383.538 79.8924 384.09 80.3244C384.65 80.7564 384.93 81.3604 384.93 82.1364C384.93 82.6724 384.794 83.1324 384.522 83.5164C384.258 83.8924 383.874 84.1844 383.37 84.3924C382.866 84.5924 382.258 84.6924 381.546 84.6924ZM380.814 86.2044V84.4524H382.206V86.2044H380.814ZM380.766 76.4844V74.7324H382.158V76.4844H380.766Z" fill="#94A2C9"/>
<rect x="311.517" y="316.721" width="138.83" height="58.1539" rx="6" fill="#1F1F32"/>
<circle cx="342.374" cy="345.799" r="18.4089" fill="#BCCFFF"/>
<mask id="mask2_57_766" style="mask-type:alpha" maskUnits="userSpaceOnUse" x="328" y="332" width="29" height="28">
<rect x="328.622" y="332.046" width="27.5045" height="27.5045" fill="#4BB682"/>
</mask>
<g mask="url(#mask2_57_766)">
<path d="M342.374 345.799C341.114 345.799 340.034 345.35 339.137 344.452C338.239 343.554 337.79 342.475 337.79 341.214C337.79 339.954 338.239 338.875 339.137 337.977C340.034 337.079 341.114 336.63 342.374 336.63C343.635 336.63 344.714 337.079 345.612 337.977C346.509 338.875 346.958 339.954 346.958 341.214C346.958 342.475 346.509 343.554 345.612 344.452C344.714 345.35 343.635 345.799 342.374 345.799ZM333.206 354.967V351.758C333.206 351.108 333.373 350.512 333.707 349.967C334.042 349.423 334.486 349.007 335.04 348.721C336.224 348.129 337.427 347.685 338.65 347.389C339.872 347.093 341.114 346.945 342.374 346.945C343.635 346.945 344.876 347.093 346.099 347.389C347.321 347.685 348.525 348.129 349.709 348.721C350.263 349.007 350.707 349.423 351.041 349.967C351.375 350.512 351.542 351.108 351.542 351.758V354.967H333.206Z" fill="#3D65CB"/>
</g>
<path d="M370.783 360.937H438.013" stroke="#393959" stroke-width="4" stroke-linecap="round"/>
<path d="M370.783 352.937L398.563 352.937" stroke="#585877" stroke-width="4" stroke-linecap="round"/>
<path d="M407.015 352.937L425.072 352.937" stroke="#393959" stroke-width="4" stroke-linecap="round"/>
<path d="M411.015 340.888C410.327 340.888 409.743 340.776 409.263 340.552C408.783 340.32 408.391 340.008 408.087 339.616C407.783 339.216 407.559 338.76 407.415 338.248C407.279 337.728 407.211 337.184 407.211 336.616V335.944C407.211 335.136 407.347 334.408 407.619 333.76C407.891 333.112 408.307 332.6 408.867 332.224C409.427 331.84 410.143 331.648 411.015 331.648C411.879 331.648 412.591 331.84 413.151 332.224C413.711 332.6 414.123 333.112 414.387 333.76C414.659 334.408 414.795 335.136 414.795 335.944V336.616C414.795 337.184 414.723 337.728 414.579 338.248C414.443 338.76 414.223 339.216 413.919 339.616C413.623 340.008 413.235 340.32 412.755 340.552C412.275 340.776 411.695 340.888 411.015 340.888ZM411.015 339.328C411.727 339.328 412.251 339.084 412.587 338.596C412.923 338.1 413.091 337.332 413.091 336.292C413.091 335.188 412.919 334.4 412.575 333.928C412.231 333.448 411.711 333.208 411.015 333.208C410.311 333.208 409.783 333.448 409.431 333.928C409.087 334.4 408.915 335.18 408.915 336.268C408.915 337.316 409.087 338.088 409.431 338.584C409.775 339.08 410.303 339.328 411.015 339.328Z" fill="#94A2C9"/>
<path d="M401.945 340.888C401.257 340.888 400.673 340.776 400.193 340.552C399.713 340.32 399.321 340.008 399.017 339.616C398.713 339.216 398.489 338.76 398.345 338.248C398.209 337.728 398.141 337.184 398.141 336.616V335.944C398.141 335.136 398.277 334.408 398.549 333.76C398.821 333.112 399.237 332.6 399.797 332.224C400.357 331.84 401.073 331.648 401.945 331.648C402.809 331.648 403.521 331.84 404.081 332.224C404.641 332.6 405.053 333.112 405.317 333.76C405.589 334.408 405.725 335.136 405.725 335.944V336.616C405.725 337.184 405.653 337.728 405.509 338.248C405.373 338.76 405.153 339.216 404.849 339.616C404.553 340.008 404.165 340.32 403.685 340.552C403.205 340.776 402.625 340.888 401.945 340.888ZM401.945 339.328C402.657 339.328 403.181 339.084 403.517 338.596C403.853 338.1 404.021 337.332 404.021 336.292C404.021 335.188 403.849 334.4 403.505 333.928C403.161 333.448 402.641 333.208 401.945 333.208C401.241 333.208 400.713 333.448 400.361 333.928C400.017 334.4 399.845 335.18 399.845 336.268C399.845 337.316 400.017 338.088 400.361 338.584C400.705 339.08 401.233 339.328 401.945 339.328Z" fill="#94A2C9"/>
<path d="M394.858 340.66V338.74H396.73V340.66H394.858Z" fill="#94A2C9"/>
<path d="M390.223 340.9C389.551 340.9 388.959 340.792 388.447 340.576C387.935 340.36 387.535 340.052 387.247 339.652C386.959 339.252 386.815 338.776 386.815 338.224C386.815 337.856 386.879 337.532 387.007 337.252C387.135 336.964 387.311 336.72 387.535 336.52C387.759 336.312 388.023 336.156 388.327 336.052V335.908C388.095 335.804 387.883 335.668 387.691 335.5C387.507 335.332 387.359 335.128 387.247 334.888C387.143 334.648 387.091 334.372 387.091 334.06C387.091 333.532 387.227 333.092 387.499 332.74C387.779 332.38 388.155 332.112 388.627 331.936C389.107 331.752 389.639 331.66 390.223 331.66C390.815 331.66 391.347 331.752 391.819 331.936C392.299 332.112 392.675 332.38 392.947 332.74C393.227 333.092 393.367 333.532 393.367 334.06C393.367 334.372 393.311 334.648 393.199 334.888C393.095 335.128 392.951 335.332 392.767 335.5C392.583 335.668 392.371 335.804 392.131 335.908V336.052C392.435 336.156 392.699 336.312 392.923 336.52C393.155 336.728 393.331 336.976 393.451 337.264C393.579 337.544 393.643 337.864 393.643 338.224C393.643 338.776 393.499 339.252 393.211 339.652C392.931 340.052 392.535 340.36 392.023 340.576C391.511 340.792 390.911 340.9 390.223 340.9ZM390.223 339.496C390.591 339.496 390.907 339.44 391.171 339.328C391.435 339.216 391.639 339.052 391.783 338.836C391.927 338.62 391.999 338.36 391.999 338.056C391.999 337.752 391.927 337.496 391.783 337.288C391.647 337.072 391.443 336.908 391.171 336.796C390.907 336.684 390.591 336.628 390.223 336.628C389.863 336.628 389.551 336.684 389.287 336.796C389.023 336.908 388.819 337.072 388.675 337.288C388.531 337.496 388.459 337.752 388.459 338.056C388.459 338.36 388.531 338.62 388.675 338.836C388.819 339.052 389.023 339.216 389.287 339.328C389.551 339.44 389.863 339.496 390.223 339.496ZM390.223 335.356C390.687 335.356 391.051 335.26 391.315 335.068C391.587 334.868 391.723 334.58 391.723 334.204C391.723 333.812 391.587 333.524 391.315 333.34C391.043 333.156 390.679 333.064 390.223 333.064C389.767 333.064 389.403 333.16 389.131 333.352C388.867 333.536 388.735 333.82 388.735 334.204C388.735 334.58 388.871 334.868 389.143 335.068C389.415 335.26 389.775 335.356 390.223 335.356Z" fill="#94A2C9"/>
<path d="M383.41 340.66V332.956L383.938 333.364H381.622V331.9H385.102V340.66H383.41Z" fill="#94A2C9"/>
<path d="M374.707 340.696C373.955 340.696 373.323 340.584 372.811 340.36C372.307 340.128 371.923 339.804 371.659 339.388C371.403 338.964 371.275 338.464 371.275 337.888H372.811C372.811 338.136 372.875 338.372 373.003 338.596C373.131 338.82 373.331 339.004 373.603 339.148C373.883 339.284 374.251 339.352 374.707 339.352C375.307 339.352 375.763 339.236 376.075 339.004C376.387 338.772 376.543 338.484 376.543 338.14C376.543 337.828 376.407 337.568 376.135 337.36C375.871 337.152 375.459 337.024 374.899 336.976L374.227 336.916C373.403 336.836 372.747 336.588 372.259 336.172C371.771 335.748 371.527 335.148 371.527 334.372C371.527 333.836 371.647 333.384 371.887 333.016C372.135 332.648 372.487 332.372 372.943 332.188C373.407 331.996 373.955 331.9 374.587 331.9C375.243 331.9 375.799 332.008 376.255 332.224C376.719 332.44 377.071 332.752 377.311 333.16C377.559 333.56 377.683 334.048 377.683 334.624H376.147C376.147 334.376 376.087 334.148 375.967 333.94C375.855 333.732 375.683 333.564 375.451 333.436C375.227 333.308 374.939 333.244 374.587 333.244C374.267 333.244 373.995 333.292 373.771 333.388C373.547 333.484 373.375 333.616 373.255 333.784C373.135 333.952 373.075 334.148 373.075 334.372C373.075 334.652 373.175 334.9 373.375 335.116C373.583 335.332 373.915 335.46 374.371 335.5L375.043 335.56C375.963 335.64 376.699 335.896 377.251 336.328C377.811 336.76 378.091 337.364 378.091 338.14C378.091 338.676 377.955 339.136 377.683 339.52C377.419 339.896 377.035 340.188 376.531 340.396C376.027 340.596 375.419 340.696 374.707 340.696ZM373.975 342.208V340.456H375.367V342.208H373.975ZM373.927 332.488V330.736H375.319V332.488H373.927Z" fill="#94A2C9"/>
<rect x="101.203" y="335.13" width="138.826" height="58.1539" rx="6" fill="#1F1F32"/>
<circle cx="132.462" cy="364.207" r="18.4089" fill="#E8FBB1"/>
<mask id="mask3_57_766" style="mask-type:alpha" maskUnits="userSpaceOnUse" x="118" y="350" width="29" height="28">
<rect x="118.709" y="350.455" width="27.5045" height="27.5045" fill="#D9D9D9"/>
</mask>
<g mask="url(#mask3_57_766)">
<path d="M132.462 364.207C131.201 364.207 130.122 363.759 129.224 362.861C128.326 361.963 127.878 360.884 127.878 359.623C127.878 358.363 128.326 357.284 129.224 356.386C130.122 355.488 131.201 355.039 132.462 355.039C133.722 355.039 134.801 355.488 135.699 356.386C136.597 357.284 137.046 358.363 137.046 359.623C137.046 360.884 136.597 361.963 135.699 362.861C134.801 363.759 133.722 364.207 132.462 364.207ZM123.293 373.376V370.167C123.293 369.517 123.461 368.92 123.795 368.376C124.129 367.832 124.573 367.416 125.127 367.13C126.311 366.538 127.515 366.094 128.737 365.798C129.959 365.502 131.201 365.353 132.462 365.353C133.722 365.353 134.964 365.502 136.186 365.798C137.409 366.094 138.612 366.538 139.796 367.13C140.35 367.416 140.794 367.832 141.128 368.376C141.463 368.92 141.63 369.517 141.63 370.167V373.376H123.293Z" fill="#9BBE33"/>
</g>
<path d="M160.871 379.345H177.876" stroke="#393959" stroke-width="4" stroke-linecap="round"/>
<path d="M186.427 379.345H214.28" stroke="#393959" stroke-width="4" stroke-linecap="round"/>
<path d="M160.871 371.345L220.939 371.345" stroke="#393959" stroke-width="4" stroke-linecap="round"/>
<path d="M201.852 359.297C201.164 359.297 200.58 359.185 200.1 358.961C199.62 358.729 199.228 358.417 198.924 358.025C198.62 357.625 198.396 357.169 198.252 356.657C198.116 356.137 198.048 355.593 198.048 355.025V354.353C198.048 353.545 198.184 352.817 198.456 352.169C198.728 351.521 199.144 351.009 199.704 350.633C200.264 350.249 200.98 350.057 201.852 350.057C202.716 350.057 203.428 350.249 203.988 350.633C204.548 351.009 204.96 351.521 205.224 352.169C205.496 352.817 205.632 353.545 205.632 354.353V355.025C205.632 355.593 205.56 356.137 205.416 356.657C205.28 357.169 205.06 357.625 204.756 358.025C204.46 358.417 204.072 358.729 203.592 358.961C203.112 359.185 202.532 359.297 201.852 359.297ZM201.852 357.737C202.564 357.737 203.088 357.493 203.424 357.005C203.76 356.509 203.928 355.741 203.928 354.701C203.928 353.597 203.756 352.809 203.412 352.337C203.068 351.857 202.548 351.617 201.852 351.617C201.148 351.617 200.62 351.857 200.268 352.337C199.924 352.809 199.752 353.589 199.752 354.677C199.752 355.725 199.924 356.497 200.268 356.993C200.612 357.489 201.14 357.737 201.852 357.737Z" fill="#94A2C9"/>
<path d="M193.54 359.297C192.852 359.297 192.26 359.161 191.764 358.889C191.276 358.617 190.9 358.257 190.636 357.809C190.38 357.353 190.252 356.857 190.252 356.321H191.896C191.896 356.625 191.964 356.893 192.1 357.125C192.244 357.357 192.44 357.541 192.688 357.677C192.936 357.805 193.224 357.869 193.552 357.869C193.896 357.869 194.192 357.797 194.44 357.653C194.688 357.509 194.876 357.313 195.004 357.065C195.14 356.817 195.208 356.533 195.208 356.213C195.208 355.901 195.14 355.621 195.004 355.373C194.876 355.117 194.688 354.917 194.44 354.773C194.2 354.621 193.908 354.545 193.564 354.545C193.276 354.545 193.004 354.601 192.748 354.713C192.492 354.825 192.292 354.973 192.148 355.157H190.576L191.02 350.309H196.096V351.761H191.764L192.364 351.293L192.076 354.317L191.668 354.197C191.9 353.933 192.184 353.713 192.52 353.537C192.856 353.361 193.28 353.273 193.792 353.273C194.44 353.273 194.992 353.405 195.448 353.669C195.904 353.933 196.252 354.285 196.492 354.725C196.732 355.157 196.852 355.629 196.852 356.141V356.297C196.852 356.817 196.724 357.305 196.468 357.761C196.212 358.217 195.836 358.589 195.34 358.877C194.852 359.157 194.252 359.297 193.54 359.297Z" fill="#94A2C9"/>
<path d="M187.125 359.069V357.149H188.997V359.069H187.125Z" fill="#94A2C9"/>
<path d="M182.677 359.297C181.989 359.297 181.397 359.161 180.901 358.889C180.413 358.617 180.037 358.257 179.773 357.809C179.517 357.353 179.389 356.857 179.389 356.321H181.033C181.033 356.625 181.101 356.893 181.237 357.125C181.381 357.357 181.577 357.541 181.825 357.677C182.073 357.805 182.361 357.869 182.689 357.869C183.033 357.869 183.329 357.797 183.577 357.653C183.825 357.509 184.013 357.313 184.141 357.065C184.277 356.817 184.345 356.533 184.345 356.213C184.345 355.901 184.277 355.621 184.141 355.373C184.013 355.117 183.825 354.917 183.577 354.773C183.337 354.621 183.045 354.545 182.701 354.545C182.413 354.545 182.141 354.601 181.885 354.713C181.629 354.825 181.429 354.973 181.285 355.157H179.713L180.157 350.309H185.233V351.761H180.901L181.501 351.293L181.213 354.317L180.805 354.197C181.037 353.933 181.321 353.713 181.657 353.537C181.993 353.361 182.417 353.273 182.929 353.273C183.577 353.273 184.129 353.405 184.585 353.669C185.041 353.933 185.389 354.285 185.629 354.725C185.869 355.157 185.989 355.629 185.989 356.141V356.297C185.989 356.817 185.861 357.305 185.605 357.761C185.349 358.217 184.973 358.589 184.477 358.877C183.989 359.157 183.389 359.297 182.677 359.297Z" fill="#94A2C9"/>
<path d="M172.057 359.069V357.389C172.057 357.021 172.113 356.701 172.225 356.429C172.345 356.157 172.537 355.917 172.801 355.709C173.073 355.493 173.429 355.289 173.869 355.097L175.357 354.437C175.725 354.269 176.005 354.065 176.197 353.825C176.397 353.577 176.497 353.261 176.497 352.877C176.497 352.453 176.369 352.117 176.113 351.869C175.865 351.613 175.509 351.485 175.045 351.485C174.581 351.485 174.221 351.613 173.965 351.869C173.717 352.125 173.593 352.481 173.593 352.937H171.949C171.949 352.393 172.065 351.905 172.297 351.473C172.529 351.033 172.873 350.689 173.329 350.441C173.785 350.185 174.357 350.057 175.045 350.057C175.733 350.057 176.305 350.181 176.761 350.429C177.217 350.677 177.561 351.009 177.793 351.425C178.025 351.833 178.141 352.289 178.141 352.793V352.949C178.141 353.605 177.957 354.153 177.589 354.593C177.221 355.025 176.681 355.401 175.969 355.721L174.481 356.381C174.201 356.501 174.005 356.629 173.893 356.765C173.781 356.893 173.725 357.069 173.725 357.293V358.061L173.317 357.617H178.177V359.069H172.057Z" fill="#94A2C9"/>
<path d="M164.795 359.105C164.043 359.105 163.411 358.993 162.899 358.769C162.395 358.537 162.011 358.213 161.747 357.797C161.491 357.373 161.363 356.873 161.363 356.297H162.899C162.899 356.545 162.963 356.781 163.091 357.005C163.219 357.229 163.419 357.413 163.691 357.557C163.971 357.693 164.339 357.761 164.795 357.761C165.395 357.761 165.851 357.645 166.163 357.413C166.475 357.181 166.631 356.893 166.631 356.549C166.631 356.237 166.495 355.977 166.223 355.769C165.959 355.561 165.547 355.433 164.987 355.385L164.315 355.325C163.491 355.245 162.835 354.997 162.347 354.581C161.859 354.157 161.615 353.557 161.615 352.781C161.615 352.245 161.735 351.793 161.975 351.425C162.223 351.057 162.575 350.781 163.031 350.597C163.495 350.405 164.043 350.309 164.675 350.309C165.331 350.309 165.887 350.417 166.343 350.633C166.807 350.849 167.159 351.161 167.399 351.569C167.647 351.969 167.771 352.457 167.771 353.033H166.235C166.235 352.785 166.175 352.557 166.055 352.349C165.943 352.141 165.771 351.973 165.539 351.845C165.315 351.717 165.027 351.653 164.675 351.653C164.355 351.653 164.083 351.701 163.859 351.797C163.635 351.893 163.463 352.025 163.343 352.193C163.223 352.361 163.163 352.557 163.163 352.781C163.163 353.061 163.263 353.309 163.463 353.525C163.671 353.741 164.003 353.869 164.459 353.909L165.131 353.969C166.051 354.049 166.787 354.305 167.339 354.737C167.899 355.169 168.179 355.773 168.179 356.549C168.179 357.085 168.043 357.545 167.771 357.929C167.507 358.305 167.123 358.597 166.619 358.805C166.115 359.005 165.507 359.105 164.795 359.105ZM164.063 360.617V358.865H165.455V360.617H164.063ZM164.015 350.897V349.145H165.407V350.897H164.015Z" fill="#94A2C9"/>
<path d="M126.993 139.545C134.434 155.121 149.957 168.689 168.243 165.883C169.072 165.761 169.838 165.616 170.532 165.088C171.748 164.111 171.894 162.169 171.197 160.771C170.122 158.664 167.378 156.44 165.337 155.402C163.069 154.209 160.093 153.966 157.995 155.402C156.396 156.452 155.428 158.304 154.842 160.084C152.753 165.942 153.07 172.617 155.707 178.223C161.059 189.607 175.453 194.062 186.433 198.112" stroke="#3F3F63" stroke-miterlimit="10" stroke-linecap="round" stroke-dasharray="4 4"/>
<path d="M425.135 118.176C430.447 133.862 425.059 162.771 404.647 163.987C399.085 164.347 393.625 162.261 388.597 159.82C382.703 156.876 377.056 153.169 373.308 147.789C371.332 144.842 371.964 138.381 376.423 137.726C381.737 136.915 386.061 146.327 386.336 150.525C386.956 159.901 379.121 164.101 371.541 166.984C360.876 171.097 350.98 176.393 346.401 187.497" stroke="#3F3F63" stroke-miterlimit="10" stroke-linecap="round" stroke-dasharray="4 4"/>
<path d="M422.456 318.453C417.863 300.839 402.447 286.1 384.633 282.276C381.416 281.601 377.979 281.257 375.024 282.795C373.114 283.787 371.693 285.503 371.068 287.515C370.399 289.574 370.623 292.02 372.068 293.636C374.619 296.463 379.354 295.512 382.57 293.502C386.513 291.097 389.885 286.907 389.218 282.348C388.56 278.066 384.427 275.016 380.19 274.284C368.361 272.196 354.494 279.389 344.251 284.327" stroke="#3F3F63" stroke-miterlimit="10" stroke-linecap="round" stroke-dasharray="4 4"/>
<path d="M194.699 265.365C174.841 268.028 158.48 280.602 140.288 287.921C131.103 291.613 106.294 300.342 109.848 281.34C110.896 275.661 115.896 270.436 121.895 272.38C139.558 277.979 127.624 303.062 124.497 314.082C122.825 320.136 122.1 326.861 124.753 332.579" stroke="#3F3F63" stroke-miterlimit="10" stroke-linecap="round" stroke-dasharray="4 4"/>
<path d="M337.232 204.758H192.484V297.339H337.232V204.758Z" fill="#FFD5B4"/>
<path d="M264.858 141.5L192.484 204.758H337.232L264.858 141.5Z" fill="#B45409"/>
<path d="M310.782 166.158H218.934C216.724 166.158 214.934 167.949 214.934 170.158V293.339C214.934 295.548 216.724 297.339 218.934 297.339H310.782C312.991 297.339 314.782 295.548 314.782 293.339V170.158C314.782 167.949 312.991 166.158 310.782 166.158Z" fill="white"/>
<path d="M239.508 205.639C237.58 205.639 235.977 205.363 234.698 204.813C233.42 204.242 232.456 203.445 231.806 202.422C231.157 201.38 230.833 200.16 230.833 198.763H235.17C235.17 199.314 235.318 199.835 235.613 200.327C235.908 200.799 236.38 201.183 237.03 201.478C237.679 201.753 238.505 201.891 239.508 201.891C240.846 201.891 241.869 201.655 242.577 201.183C243.305 200.711 243.669 200.081 243.669 199.294C243.669 198.606 243.364 198.045 242.755 197.612C242.145 197.16 241.171 196.865 239.833 196.727L238.328 196.609C236.223 196.412 234.551 195.783 233.311 194.72C232.072 193.638 231.452 192.114 231.452 190.146C231.452 188.789 231.757 187.658 232.367 186.753C232.977 185.828 233.852 185.139 234.993 184.687C236.134 184.215 237.502 183.979 239.095 183.979C240.807 183.979 242.243 184.244 243.404 184.775C244.564 185.307 245.44 186.074 246.03 187.077C246.64 188.081 246.945 189.3 246.945 190.736H242.607C242.607 190.166 242.469 189.664 242.194 189.231C241.938 188.779 241.554 188.415 241.043 188.14C240.531 187.864 239.882 187.726 239.095 187.726C238.407 187.726 237.817 187.825 237.325 188.022C236.833 188.218 236.459 188.504 236.203 188.877C235.948 189.231 235.82 189.654 235.82 190.146C235.82 190.756 236.046 191.307 236.498 191.799C236.951 192.271 237.698 192.566 238.741 192.684L240.246 192.802C242.607 192.999 244.496 193.638 245.912 194.72C247.329 195.802 248.037 197.327 248.037 199.294C248.037 200.652 247.702 201.803 247.033 202.747C246.365 203.691 245.391 204.409 244.112 204.901C242.853 205.393 241.318 205.639 239.508 205.639ZM237.413 209.328V205.019H241.279V209.328H237.413ZM237.295 185.425V181.116H241.161V185.425H237.295Z" fill="#24AEEB"/>
<path d="M230.833 229.99H288.32" stroke="#B5BCFD" stroke-width="6" stroke-linecap="round"/>
<path d="M230.833 218.864H265.241" stroke="#B5BCFD" stroke-width="6" stroke-linecap="round"/>
<path d="M273.852 218.864H296.505" stroke="#B5BCFD" stroke-width="6" stroke-linecap="round"/>
<path d="M264.858 248.574L192.484 297.339H337.232L264.858 248.574Z" fill="#D97706"/>
<path d="M264.858 248.574L192.484 204.758V297.339L264.858 248.574Z" fill="#EBB308"/>
<path d="M264.858 248.574L337.232 204.758V297.339L264.858 248.574Z" fill="#EBB308"/>
<g clip-path="url(#clip0_57_766)">
<path d="M314.486 246.935C314.486 246.935 315.628 252.694 321.266 258.65C324.556 262.119 336.394 259.64 341.944 269.01C346.817 277.24 345.989 289.359 345.989 289.359L373.478 273.557C373.478 273.557 374.041 262.151 366.723 254.531C361.768 249.367 350.428 251.965 344.067 245.747C341.179 242.935 337.271 237.359 337.271 237.359L314.486 246.935Z" fill="#BDE377"/>
<path d="M316.505 247.941C316.505 247.941 317.928 252.717 322.987 257.454C325.955 260.234 339.233 258.492 343.97 266.412C348.136 273.367 348.273 285.193 348.273 285.193L371.749 271.965C371.749 271.965 371.033 261.28 364.768 254.84C360.53 250.476 348.578 252.369 343.134 247.125C340.665 244.749 337.126 238.983 337.126 238.983L316.505 247.941Z" fill="#6BA638"/>
<path d="M318.435 248.836C318.435 248.836 319.448 252.226 324.266 256.416C328.633 260.202 340.689 257.097 345.072 265.09C348.924 272.107 349.68 282.143 349.68 282.143L369.754 270.824C369.754 270.824 369.61 262.555 363.908 256.004C360.039 251.569 346.327 252.828 341.598 247.284C339.313 244.598 336.949 240.543 336.949 240.543L318.435 248.836Z" fill="#BDE377"/>
<path d="M339.024 261.074C336.74 260.115 334.488 257.81 338.71 255.086C343.552 251.957 349.656 251.109 354.12 251.846C358.583 252.583 361.246 255.783 355.712 259.181C350.179 262.571 345.193 263.6 343.142 263.133C341.091 262.666 339.024 261.074 339.024 261.074Z" fill="#6BA638"/>
<path d="M335.759 249.01C336.049 249.834 335.478 250.777 334.488 251.109C333.499 251.442 332.47 251.038 332.188 250.214C331.899 249.391 332.47 248.448 333.459 248.115C334.44 247.775 335.478 248.179 335.759 249.01Z" fill="#6BA638"/>
<path d="M361.286 267.228C361.632 268.234 361.117 269.311 360.128 269.644C359.139 269.977 358.061 269.43 357.715 268.424C357.369 267.418 357.884 266.341 358.873 266.008C359.862 265.676 360.94 266.222 361.286 267.228Z" fill="#6BA638"/>
<path d="M352.31 253.787L353.131 253.28L351.699 252.591L350.79 253.2C350.026 253.002 349.246 252.915 348.675 252.955C347.244 253.042 343.785 254.056 344.702 255.49C345.49 256.733 348.402 257.636 345.925 258.769C344.734 259.307 342.515 258.452 342.458 257.509C342.41 256.804 342.989 256.353 342.989 256.353L341.903 255.474C341.903 255.474 339.048 257.454 341.477 259.505C341.477 259.505 341.485 259.505 341.485 259.513L340.536 260.155L341.871 260.828L342.796 260.258C344.453 260.884 346.592 260.797 348.024 260.044C349.689 259.165 349.335 257.43 348.378 256.741C347.421 256.052 346.198 255.299 347.083 254.69C347.975 254.08 349.6 253.866 350.549 254.492C351.49 255.117 350.855 256.202 350.855 256.202L352.503 256.876C352.503 256.876 353.855 255.743 353.251 254.618C353.074 254.301 352.737 254.024 352.31 253.787Z" fill="#BDE377"/>
</g>
<g clip-path="url(#clip1_57_766)">
<path d="M223.033 310.975C224.492 310.897 228.041 310.784 234.109 305.936C238.066 302.781 241.192 297.312 241.192 297.312L206.086 296.918L199.51 307.711L223.033 310.975Z" fill="#9EAF61"/>
<path d="M220.738 310.762C218.358 311.212 216.689 311.249 216.61 311.246L216.621 309.68C216.638 309.677 218.474 309.645 220.965 309.129C223.244 308.654 226.552 307.679 229.405 305.693C231.886 303.966 234.327 301.331 235.653 299.805C229.239 299.75 208.974 299.571 208.602 299.551L208.718 297.984L208.709 297.986C209.187 298.003 227.659 298.17 237.36 298.251L238.959 298.264L237.997 299.488C237.849 299.678 234.24 304.259 230.369 306.939C227.259 309.099 223.685 310.152 221.237 310.659C221.067 310.691 220.908 310.73 220.738 310.762Z" fill="#639334"/>
<path d="M165.161 277.282C165.161 277.282 171.057 281.694 173.453 287.782C174.704 290.969 176.716 297.722 179.905 304.847C182.831 311.373 188.263 313.24 188.263 313.24L223.069 310.978C223.069 310.978 215.528 309.608 210.294 300.382C207.361 295.213 203.6 283.291 201.906 279.9C198.779 273.609 193.905 272.652 193.905 272.652L165.161 277.282Z" fill="#BDE377"/>
<path d="M211.649 305.373C207.088 299.99 204.66 293.27 202.326 286.766C201.474 284.393 200.666 282.156 199.768 280.008C197.629 274.905 193.343 274.277 193.153 274.25L193.018 274.23L168.073 278.116L169.207 279.285C169.25 279.331 173.678 283.912 174.753 287.051C176.848 293.169 178.738 298.58 180.654 302.729C182.704 307.175 184.726 310.027 187.022 311.687C187.814 312.256 188.591 312.747 189.309 313.159L192.098 312.965C191.151 312.551 189.99 311.656 188.151 310.324C183.789 307.158 180.831 299.209 176.479 286.483C175.628 284.02 173.107 280.938 171.637 279.285L192.969 275.965C193.242 276.021 193.964 276.217 194.805 276.723C196.24 277.584 197.342 278.912 198.077 280.669C198.958 282.775 199.763 284.995 200.603 287.352C201.769 290.6 202.982 293.955 204.492 297.21C206.21 300.919 208.089 303.943 210.222 306.46C212.107 308.682 214.236 310.292 216.062 311.412L219.338 311.197C217.419 310.284 214.256 308.447 211.649 305.373Z" fill="#6BA638"/>
<path d="M212.234 307.912C209.773 305.197 204.141 299.81 192.387 302.794C183.398 305.085 185.441 309.398 187.48 311.043C188.318 311.72 189.62 312.481 191.224 313.031L210.164 311.816C211.472 311.587 213.706 309.53 212.234 307.912Z" fill="#6BA638"/>
<path d="M192.065 288.597C192.288 289.776 190.962 291.024 189.098 291.376C187.235 291.728 185.547 291.059 185.322 289.87C185.099 288.691 186.425 287.443 188.289 287.091C190.154 286.748 191.842 287.417 192.065 288.597Z" fill="#6BA638"/>
<path d="M220.493 304.636C220.363 305.523 218.738 306.073 216.866 305.869C214.994 305.666 213.582 304.783 213.712 303.896C213.843 303.008 215.467 302.459 217.339 302.662C219.211 302.866 220.624 303.749 220.493 304.636Z" fill="#639334"/>
<path d="M202.822 312.287L207.329 311.993C207.482 311.505 207.548 310.927 207.475 310.258L208.888 310.126L208.447 308.161L207.094 308.38C206.332 305.649 204.805 304.069 201.77 304.489C197.694 305.062 197.853 308.087 197.406 309.716C196.959 311.346 196.927 312.43 195.757 312.552C194.587 312.675 193.798 312.258 193.443 310.797C192.816 308.265 194.701 308.215 194.701 308.215L194.175 305.754C194.175 305.754 189.896 306.23 190.421 310.407L189.16 310.6L189.513 312.24L190.879 312.18C190.999 312.49 191.148 312.767 191.302 313.026L199.596 312.483C199.809 311.85 199.889 311.206 199.96 310.698C200.214 308.835 200.597 307.568 201.79 307.379C203.365 307.126 204.257 307.946 204.434 309.718C204.591 311.342 203.585 312.008 202.822 312.287Z" fill="#BDE377"/>
</g>
<g clip-path="url(#clip2_57_766)">
<path d="M291.563 143.812C291.563 143.812 288.266 138.327 283.118 135.981C277.973 133.63 265.657 132.5 262.018 129.774C258.378 127.048 255.077 123.969 255.077 123.969L240.368 143.155C240.368 143.155 248.848 149.403 253.035 150.772C258.867 152.683 267.235 151.661 270.847 153.928C275.127 156.618 282.289 163.665 282.289 163.665L291.563 143.812Z" fill="#BDE377"/>
<path d="M290.043 144.139C290.043 144.139 286.404 139.66 281.634 137.51C276.869 135.362 265.647 133.912 262.234 131.512C258.82 129.118 255.7 126.437 255.7 126.437L243.154 142.52C243.154 142.52 248.108 146.583 253.576 149.049C257.996 151.047 267.909 150.413 271.336 152.332C274.763 154.251 281.896 160.512 281.896 160.512L290.043 144.139Z" fill="#6BA638"/>
<path d="M272.001 150.881C276.056 152.874 281.536 158.177 281.536 158.177L288.419 144.745C288.419 144.745 286.052 141.267 280.934 138.677C276.49 136.429 265.183 135.004 261.886 132.825C258.589 130.645 255.559 128.248 255.559 128.248L245.733 142.085C245.733 142.085 249.506 145.312 254.222 147.657C259.632 150.355 268.655 149.231 272.001 150.881Z" fill="#BDE377"/>
<path d="M271.793 135.615C274.945 136.254 276.195 138.501 274.185 143.151C271.877 148.497 267.816 151.008 265.638 150.475C263.46 149.942 258.871 148.549 261.619 142.111C263.45 137.83 267.767 134.457 269.293 134.797C270.827 135.133 271.793 135.615 271.793 135.615Z" fill="#6BA638"/>
<path d="M264.735 147.758L266.004 148.218L266.347 147.4C268.162 147.954 269.585 147.681 270.388 145.871C271.469 143.437 269.701 142.447 268.932 141.625C268.162 140.803 267.558 140.394 267.895 139.714C268.227 139.032 268.74 138.748 269.686 139.069C271.341 139.626 270.716 140.677 270.716 140.677L272.291 141.266C272.291 141.266 273.498 138.753 270.949 137.554L271.273 136.795L270.219 136.408L269.777 137.178C268.176 136.872 267.018 137.574 266.462 138.558C265.186 140.83 266.671 141.997 267.48 142.671C268.448 143.473 269.035 144.13 268.731 144.849C268.329 145.798 267.555 145.999 266.497 145.466C264.967 144.698 265.782 143.167 265.782 143.167L264.313 142.594C264.313 142.594 262.426 145.6 265.149 146.95L264.735 147.758Z" fill="#BDE377"/>
<path d="M279.589 149.273C279.01 148.833 278.914 147.963 279.374 147.335C279.834 146.706 280.672 146.55 281.245 146.99C281.824 147.431 281.92 148.3 281.46 148.929C281 149.557 280.162 149.713 279.589 149.273Z" fill="#6BA638"/>
<path d="M253.706 138.413C253.127 137.972 253.031 137.102 253.491 136.474C253.951 135.846 254.789 135.69 255.362 136.129C255.935 136.569 256.037 137.44 255.577 138.068C255.117 138.696 254.279 138.852 253.706 138.413Z" fill="#6BA638"/>
</g>
<defs>
<radialGradient id="paint0_radial_57_766" cx="0" cy="0" r="1" gradientUnits="userSpaceOnUse" gradientTransform="translate(291.545 244.971) rotate(-90) scale(234.482 58797.6)">
<stop stop-color="#72759D"/>
<stop offset="1" stop-color="#0F111E"/>
</radialGradient>
<clipPath id="clip0_57_766">
<rect width="59" height="52" fill="white" transform="translate(314.486 237.359)"/>
</clipPath>
<clipPath id="clip1_57_766">
<rect width="71" height="44" fill="white" transform="translate(165.161 277.282) rotate(-10.6976)"/>
</clipPath>
<clipPath id="clip2_57_766">
<rect width="32.9613" height="50.1585" fill="white" transform="translate(294.04 132.495) rotate(102.343)"/>
</clipPath>
</defs>
</svg>
